<svg xmlns="http://www.w3.org/2000/svg" viewBox="0 0 1163 614.5" width="1131" height="582.5" style="background-color: rgb(248, 249, 250);"><defs><style>@import url('https://fonts.googleapis.com/css2?family=Caveat+Brush&amp;family=Source+Code+Pro&amp;family=Source+Sans+Pro&amp;family=Crimson+Pro&amp;display=block');</style></defs><g id="f98296b7-5d47-4cac-16f1-bf36ea4ebb25_svg" class="tl-centered-g" transform="translate(16.00, 16.00) rotate(0.00, 128.00, 206.50)"><path d="M 86.98,-0.32 Q 86.98,-0.32 93.08,-0.30 99.19,-0.28 106.86,-0.26 114.52,-0.24 122.58,-0.27 130.65,-0.29 138.81,-0.36 146.97,-0.43 155.16,-0.50 163.35,-0.57 171.55,-0.64 179.74,-0.71 187.94,-0.78 196.14,-0.85 204.33,-0.92 212.53,-0.99 220.73,-1.06 228.93,-1.13 237.15,-1.20 245.37,-1.27 249.50,0.59 253.62,2.45 254.75,9.42 255.88,16.39 256.08,24.43 256.28,32.47 256.30,40.78 256.33,49.08 256.30,57.46 256.28,65.84 256.24,74.23 256.21,82.63 256.17,91.03 256.13,99.43 256.10,107.83 256.06,116.23 256.02,124.64 255.98,133.04 255.94,141.44 255.90,149.84 255.86,158.25 255.83,166.65 255.79,175.05 255.75,183.45 255.71,191.86 255.67,200.26 255.69,208.66 255.70,217.06 255.72,225.47 255.73,233.87 255.75,242.27 255.76,250.68 255.78,259.08 255.79,267.48 255.81,275.88 255.83,284.29 255.84,292.69 255.86,301.09 255.87,309.49 255.89,317.90 255.90,326.30 255.92,334.70 255.93,343.10 255.95,351.51 255.96,359.91 255.98,368.31 256.00,376.72 256.01,385.12 256.02,393.54 256.03,401.97 254.17,406.14 252.30,410.31 245.51,411.46 238.71,412.61 230.90,412.83 223.08,413.05 215.01,413.09 206.95,413.12 198.81,413.12 190.67,413.11 182.52,413.09 174.37,413.07 166.21,413.04 158.05,413.02 149.89,413.00 141.73,412.97 133.57,412.99 125.41,413.01 117.25,413.07 109.09,413.14 100.93,413.20 92.77,413.26 84.61,413.32 76.45,413.39 68.29,413.45 60.13,413.51 51.97,413.57 43.81,413.64 35.65,413.70 27.49,413.76 19.30,413.82 11.12,413.88 7.01,412.01 2.90,410.15 1.75,403.18 0.60,396.21 0.38,388.18 0.16,380.15 0.11,371.85 0.07,363.54 0.07,355.17 0.07,346.80 0.08,338.41 0.09,330.02 0.10,321.62 0.12,313.22 0.13,304.83 0.15,296.43 0.16,288.03 0.18,279.63 0.19,271.24 0.21,262.84 0.22,254.44 0.24,246.04 0.25,237.65 0.27,229.25 0.28,220.85 0.30,212.45 0.26,204.05 0.22,195.66 0.18,187.26 0.14,178.86 0.10,170.46 0.06,162.07 0.02,153.67 -0.01,145.27 -0.05,136.87 -0.08,128.47 -0.12,120.08 -0.16,111.68 -0.20,103.28 -0.24,94.88 -0.28,86.49 -0.32,78.09 -0.36,69.69 -0.40,61.29 -0.44,52.89 -0.48,44.50 -0.51,36.10 -0.55,27.70 -0.59,19.28 -0.62,10.86 1.23,6.69 3.09,2.52 9.91,1.36 16.73,0.20 24.58,-0.01 32.43,-0.24 40.53,-0.28 48.64,-0.33 56.81,-0.33 64.98,-0.33 73.18,-0.31 81.37,-0.30 89.56,-0.29 97.76,-0.27 105.96,-0.25 114.16,-0.24 122.35,-0.26 130.55,-0.29 138.75,-0.36 146.95,-0.43 157.95,-0.51 168.96,-0.59 169.15,-0.56 169.35,-0.53 169.52,-0.44 169.69,-0.35 169.83,-0.20 169.97,-0.06 170.05,0.11 170.13,0.29 170.15,0.48 170.18,0.68 170.13,0.87 170.09,1.06 169.99,1.23 169.89,1.40 169.74,1.53 169.59,1.66 169.41,1.73 169.23,1.80 169.03,1.81 168.83,1.83 168.64,1.77 168.45,1.72 168.29,1.61 168.13,1.50 168.01,1.35 167.89,1.19 167.82,1.00 167.76,0.82 167.76,0.62 167.76,0.42 167.82,0.24 167.88,0.05 168.00,-0.10 168.12,-0.25 168.28,-0.37 168.45,-0.48 168.64,-0.53 168.83,-0.58 169.02,-0.57 169.22,-0.56 169.40,-0.49 169.58,-0.42 169.73,-0.29 169.89,-0.16 169.99,-0.00 170.09,0.16 170.13,0.35 170.18,0.55 170.15,0.74 170.13,0.94 170.05,1.12 169.97,1.30 169.83,1.44 169.70,1.58 169.53,1.67 169.35,1.77 169.16,1.80 168.96,1.83 168.96,1.83 168.96,1.83 157.96,1.83 146.96,1.82 138.76,1.80 130.56,1.79 122.36,1.81 114.16,1.84 105.97,1.91 97.77,1.98 89.57,2.05 81.38,2.12 73.19,2.20 65.00,2.27 56.83,2.36 48.67,2.44 40.60,2.57 32.53,2.70 24.85,3.00 17.18,3.30 11.03,4.03 4.88,4.76 3.76,7.85 2.65,10.95 2.64,19.32 2.63,27.70 2.61,36.09 2.60,44.49 2.58,52.89 2.57,61.29 2.55,69.69 2.54,78.08 2.52,86.48 2.51,94.88 2.49,103.28 2.48,111.67 2.46,120.07 2.45,128.47 2.43,136.87 2.42,145.27 2.40,153.66 2.39,162.06 2.37,170.46 2.36,178.86 2.34,187.26 2.33,195.65 2.31,204.05 2.30,212.45 2.34,220.85 2.37,229.24 2.41,237.64 2.45,246.04 2.49,254.44 2.53,262.84 2.57,271.23 2.61,279.63 2.65,288.03 2.69,296.43 2.73,304.82 2.77,313.22 2.81,321.62 2.85,330.01 2.89,338.40 2.93,346.79 2.99,355.15 3.04,363.52 3.14,371.79 3.24,380.05 3.50,387.91 3.76,395.78 4.46,402.08 5.15,408.38 8.18,409.49 11.21,410.60 19.34,410.61 27.48,410.63 35.64,410.66 43.80,410.68 51.96,410.71 60.12,410.73 68.28,410.75 76.44,410.78 84.60,410.80 92.76,410.83 100.92,410.85 109.08,410.88 117.24,410.90 125.40,410.92 133.56,410.90 141.72,410.89 149.88,410.82 158.04,410.76 166.20,410.70 174.36,410.63 182.51,410.57 190.66,410.50 198.79,410.42 206.92,410.34 214.95,410.22 222.98,410.10 230.62,409.81 238.26,409.52 244.39,408.79 250.51,408.07 251.63,404.97 252.75,401.87 252.79,393.49 252.82,385.11 252.86,376.71 252.90,368.31 252.94,359.91 252.97,351.50 253.01,343.10 253.05,334.70 253.09,326.30 253.13,317.89 253.17,309.49 253.21,301.09 253.24,292.69 253.28,284.28 253.32,275.88 253.36,267.48 253.40,259.07 253.44,250.67 253.48,242.27 253.52,233.87 253.55,225.46 253.59,217.06 253.63,208.66 253.67,200.26 253.66,191.85 253.64,183.45 253.62,175.05 253.61,166.65 253.59,158.24 253.58,149.84 253.56,141.44 253.55,133.04 253.53,124.63 253.52,116.23 253.50,107.83 253.48,99.43 253.47,91.03 253.45,82.62 253.43,74.23 253.41,65.84 253.38,57.47 253.35,49.10 253.28,40.83 253.20,32.56 252.96,24.69 252.72,16.82 252.04,10.52 251.36,4.21 248.32,3.11 245.29,2.01 237.11,1.99 228.94,1.98 220.74,1.97 212.54,1.95 204.34,1.93 196.15,1.92 187.95,1.90 179.75,1.88 171.55,1.87 163.36,1.85 155.17,1.83 146.98,1.82 138.82,1.80 130.65,1.78 122.59,1.81 114.53,1.84 106.86,1.91 99.20,1.97 93.09,2.04 86.98,2.10 86.84,2.08 86.69,2.07 86.56,2.02 86.42,1.96 86.30,1.88 86.18,1.80 86.08,1.69 85.98,1.58 85.91,1.45 85.84,1.32 85.81,1.18 85.77,1.04 85.77,0.89 85.77,0.74 85.81,0.60 85.84,0.46 85.91,0.33 85.98,0.20 86.07,0.09 86.17,-0.01 86.29,-0.10 86.41,-0.18 86.55,-0.23 86.69,-0.29 86.83,-0.30 Z" fill="#1d1d1d" stroke="#1d1d1d" stroke-width="2" pointer-events="none"/></g><g id="d706f02d-1456-42da-03b4-c1d0f1e02e1e_svg" class="tl-centered-g" transform="translate(299.00, 23.00) rotate(0.00, 424.00, 203.50)"><path d="M 761.78,407.27 Q 761.78,407.27 755.78,407.26 749.78,407.25 742.24,407.24 734.71,407.23 726.79,407.22 718.87,407.21 710.85,407.20 702.82,407.19 694.78,407.17 686.73,407.16 678.68,407.15 670.62,407.14 662.57,407.13 654.51,407.12 646.46,407.11 638.40,407.10 630.35,407.09 622.29,407.08 614.23,407.07 606.18,407.06 598.12,407.04 590.07,407.03 582.01,407.02 573.96,407.01 565.90,407.00 557.84,406.99 549.79,406.98 541.73,406.97 533.68,406.96 525.62,406.95 517.57,406.94 509.51,406.93 501.45,406.92 493.40,406.90 485.34,406.89 477.29,406.88 469.23,406.87 461.18,406.86 453.12,406.85 445.06,406.84 437.01,406.83 428.95,406.82 420.90,406.83 412.84,406.85 404.79,406.86 396.73,406.88 388.67,406.89 380.62,406.90 372.56,406.92 364.51,406.93 356.45,406.95 348.40,406.96 340.34,406.98 332.28,406.99 324.23,407.00 316.17,407.02 308.12,407.03 300.06,407.05 292.01,407.06 283.95,407.07 275.89,407.09 267.84,407.10 259.78,407.12 251.73,407.13 243.67,407.15 235.62,407.16 227.56,407.17 219.50,407.19 211.45,407.20 203.39,407.22 195.34,407.23 187.28,407.25 179.23,407.26 171.17,407.27 163.11,407.29 155.06,407.30 147.00,407.32 138.95,407.33 130.89,407.35 122.84,407.36 114.78,407.37 106.73,407.39 98.67,407.40 90.61,407.42 82.56,407.43 74.50,407.44 66.45,407.46 58.39,407.47 50.34,407.49 42.28,407.50 34.22,407.52 26.17,407.53 18.09,407.54 10.01,407.55 5.92,405.68 1.84,403.81 0.72,396.93 -0.38,390.04 -0.58,382.11 -0.77,374.18 -0.78,365.99 -0.80,357.80 -0.77,349.54 -0.73,341.29 -0.69,333.01 -0.65,324.73 -0.61,316.45 -0.56,308.16 -0.52,299.88 -0.47,291.60 -0.42,283.31 -0.38,275.03 -0.33,266.74 -0.29,258.46 -0.24,250.17 -0.20,241.89 -0.15,233.61 -0.10,225.32 -0.06,217.04 -0.01,208.75 -0.02,200.47 -0.03,192.18 -0.04,183.90 -0.05,175.61 -0.05,167.33 -0.06,159.05 -0.07,150.76 -0.08,142.48 -0.09,134.19 -0.10,125.91 -0.10,117.62 -0.11,109.34 -0.12,101.05 -0.13,92.77 -0.14,84.48 -0.15,76.20 -0.15,67.92 -0.16,59.63 -0.17,51.35 -0.18,43.06 -0.19,34.78 -0.20,26.49 -0.20,18.18 -0.20,9.88 1.65,5.74 3.52,1.60 10.24,0.44 16.96,-0.71 24.68,-0.94 32.40,-1.17 40.37,-1.21 48.33,-1.26 56.37,-1.26 64.40,-1.26 72.45,-1.25 80.51,-1.24 88.56,-1.23 96.62,-1.22 104.68,-1.20 112.73,-1.19 120.79,-1.18 128.85,-1.16 136.91,-1.15 144.96,-1.14 153.02,-1.12 161.08,-1.11 169.14,-1.09 177.20,-1.08 185.25,-1.07 193.31,-1.05 201.37,-1.04 209.43,-1.03 217.49,-1.01 225.54,-1.00 233.60,-0.98 241.66,-0.97 249.72,-0.96 257.77,-0.94 265.83,-0.93 273.89,-0.92 281.95,-0.90 290.01,-0.89 298.06,-0.87 306.12,-0.86 314.18,-0.85 322.24,-0.83 330.29,-0.82 338.35,-0.81 346.41,-0.79 354.47,-0.78 362.53,-0.76 370.58,-0.75 378.64,-0.74 386.70,-0.72 394.76,-0.71 402.82,-0.69 410.87,-0.68 418.93,-0.67 426.99,-0.68 435.05,-0.69 443.10,-0.70 451.16,-0.71 459.22,-0.72 467.28,-0.73 475.34,-0.75 483.39,-0.76 491.45,-0.77 499.51,-0.78 507.57,-0.79 515.62,-0.80 523.68,-0.81 531.74,-0.82 539.80,-0.84 547.86,-0.85 555.91,-0.86 563.97,-0.87 572.03,-0.88 580.09,-0.89 588.15,-0.90 596.20,-0.91 604.26,-0.93 612.32,-0.94 620.38,-0.95 628.43,-0.96 636.49,-0.97 644.55,-0.98 652.61,-0.99 660.67,-1.00 668.72,-1.01 676.78,-1.03 684.84,-1.04 692.90,-1.05 700.95,-1.06 709.01,-1.07 717.07,-1.08 725.13,-1.09 733.19,-1.10 741.24,-1.12 749.30,-1.13 757.36,-1.14 765.42,-1.15 773.48,-1.16 781.53,-1.17 789.59,-1.18 797.65,-1.19 805.71,-1.21 813.76,-1.22 821.82,-1.23 829.90,-1.23 837.99,-1.24 842.07,0.62 846.16,2.49 847.27,9.37 848.38,16.25 848.57,24.17 848.76,32.10 848.77,40.28 848.78,48.46 848.74,56.72 848.71,64.97 848.66,73.24 848.61,81.51 848.56,89.79 848.51,98.06 848.46,106.34 848.41,114.62 848.36,122.90 848.31,131.17 848.26,139.45 848.21,147.73 848.16,156.01 848.11,164.29 848.06,172.56 848.01,180.84 847.96,189.12 847.91,197.40 847.91,205.67 847.92,213.95 847.92,222.23 847.93,230.51 847.93,238.79 847.93,247.06 847.94,255.34 847.94,263.62 847.94,271.90 847.95,280.18 847.95,288.45 847.96,296.73 847.96,305.01 847.96,313.29 847.97,321.57 847.97,329.84 847.97,338.12 847.98,346.40 847.98,354.68 847.99,362.96 847.99,371.23 847.99,379.51 847.99,387.81 847.99,396.12 846.12,400.25 844.25,404.39 837.54,405.55 830.82,406.71 823.10,406.94 815.38,407.17 807.42,407.22 799.45,407.27 791.42,407.28 783.39,407.28 775.34,407.28 767.29,407.27 759.23,407.26 751.18,407.25 743.13,407.24 735.07,407.23 727.01,407.22 718.96,407.21 710.90,407.20 702.85,407.19 694.79,407.17 686.74,407.16 678.68,407.15 670.62,407.14 662.57,407.13 654.51,407.12 646.46,407.11 638.40,407.10 630.35,407.09 622.29,407.08 614.23,407.07 606.18,407.06 598.12,407.04 590.07,407.03 582.01,407.02 573.96,407.01 565.90,407.00 557.84,406.99 549.79,406.98 541.73,406.97 533.68,406.96 525.62,406.95 517.57,406.94 509.51,406.93 501.45,406.92 493.40,406.90 485.34,406.89 477.29,406.88 469.23,406.87 461.18,406.86 453.12,406.85 445.06,406.84 437.01,406.83 428.95,406.82 420.90,406.83 412.84,406.85 402.03,406.86 391.22,406.88 391.05,406.85 390.88,406.82 390.73,406.74 390.58,406.66 390.46,406.54 390.35,406.42 390.28,406.26 390.20,406.11 390.19,405.94 390.17,405.77 390.20,405.60 390.24,405.44 390.33,405.29 390.42,405.15 390.54,405.04 390.67,404.93 390.83,404.86 390.99,404.80 391.16,404.79 391.33,404.78 391.49,404.83 391.66,404.87 391.80,404.97 391.94,405.06 392.04,405.20 392.14,405.33 392.20,405.50 392.25,405.66 392.25,405.83 392.25,406.00 392.20,406.16 392.14,406.32 392.04,406.45 391.94,406.59 391.80,406.68 391.66,406.78 391.49,406.83 391.33,406.87 391.16,406.86 390.99,406.85 390.83,406.79 390.67,406.73 390.54,406.62 390.42,406.51 390.33,406.36 390.24,406.22 390.20,406.05 390.17,405.88 390.19,405.71 390.20,405.55 390.28,405.39 390.35,405.24 390.46,405.11 390.58,404.99 390.73,404.91 390.88,404.83 391.05,404.80 391.22,404.78 391.22,404.78 391.22,404.78 402.03,404.79 412.84,404.80 420.90,404.81 428.95,404.82 437.01,404.80 445.06,404.79 453.12,404.78 461.18,404.76 469.23,404.75 477.29,404.73 485.34,404.72 493.40,404.70 501.45,404.69 509.51,404.68 517.57,404.66 525.62,404.65 533.68,404.63 541.73,404.62 549.79,404.61 557.84,404.59 565.90,404.58 573.96,404.56 582.01,404.55 590.07,404.53 598.12,404.52 606.18,404.51 614.23,404.49 622.29,404.48 630.35,404.46 638.40,404.45 646.46,404.43 654.51,404.42 662.57,404.41 670.62,404.39 678.68,404.38 686.74,404.36 694.79,404.35 702.85,404.34 710.90,404.32 718.96,404.31 727.01,404.29 735.07,404.28 743.12,404.26 751.18,404.25 759.23,404.23 767.29,404.22 775.33,404.20 783.38,404.18 791.41,404.15 799.43,404.12 807.36,404.05 815.29,403.98 822.82,403.74 830.36,403.50 836.41,402.82 842.47,402.14 843.59,399.08 844.71,396.01 844.76,387.76 844.80,379.50 844.85,371.23 844.90,362.95 844.95,354.67 845.00,346.39 845.05,338.11 845.10,329.84 845.15,321.56 845.21,313.28 845.26,305.00 845.31,296.72 845.36,288.45 845.41,280.17 845.46,271.89 845.51,263.61 845.56,255.34 845.61,247.06 845.66,238.78 845.71,230.50 845.76,222.22 845.81,213.95 845.86,205.67 845.91,197.39 845.91,189.11 845.90,180.83 845.90,172.56 845.90,164.28 845.89,156.00 845.89,147.72 845.88,139.45 845.88,131.17 845.88,122.89 845.87,114.61 845.87,106.33 845.86,98.06 845.86,89.78 845.85,81.50 845.85,73.24 845.84,64.97 845.82,56.72 845.80,48.47 845.74,40.33 845.68,32.18 845.45,24.43 845.22,16.68 844.56,10.46 843.90,4.25 840.89,3.14 837.89,2.03 829.85,2.02 821.82,2.01 813.76,2.00 805.71,1.98 797.65,1.97 789.59,1.96 781.53,1.94 773.47,1.93 765.42,1.92 757.36,1.90 749.30,1.89 741.24,1.87 733.19,1.86 725.13,1.85 717.07,1.83 709.01,1.82 700.95,1.81 692.90,1.79 684.84,1.78 676.78,1.76 668.72,1.75 660.67,1.74 652.61,1.72 644.55,1.71 636.49,1.70 628.43,1.68 620.38,1.67 612.32,1.65 604.26,1.64 596.20,1.63 588.14,1.61 580.09,1.60 572.03,1.58 563.97,1.57 555.91,1.56 547.86,1.54 539.80,1.53 531.74,1.52 523.68,1.50 515.62,1.49 507.57,1.47 499.51,1.46 491.45,1.45 483.39,1.43 475.34,1.42 467.28,1.41 459.22,1.39 451.16,1.38 443.10,1.36 435.05,1.35 426.99,1.34 418.93,1.32 410.87,1.33 402.81,1.35 394.76,1.36 386.70,1.37 378.64,1.38 370.58,1.39 362.53,1.40 354.47,1.41 346.41,1.42 338.35,1.43 330.29,1.45 322.24,1.46 314.18,1.47 306.12,1.48 298.06,1.49 290.01,1.50 281.95,1.51 273.89,1.52 265.83,1.54 257.77,1.55 249.72,1.56 241.66,1.57 233.60,1.58 225.54,1.59 217.48,1.60 209.43,1.61 201.37,1.63 193.31,1.64 185.25,1.65 177.20,1.66 169.14,1.67 161.08,1.68 153.02,1.69 144.96,1.70 136.91,1.72 128.85,1.73 120.79,1.74 112.73,1.75 104.68,1.76 96.62,1.77 88.56,1.78 80.51,1.80 72.46,1.81 64.41,1.83 56.38,1.85 48.36,1.88 40.43,1.95 32.50,2.02 24.96,2.26 17.42,2.50 11.36,3.17 5.31,3.84 4.19,6.91 3.07,9.98 3.03,18.24 2.99,26.50 2.94,34.78 2.89,43.07 2.85,51.35 2.80,59.64 2.76,67.92 2.71,76.21 2.66,84.49 2.62,92.78 2.57,101.06 2.53,109.34 2.48,117.63 2.44,125.91 2.39,134.20 2.34,142.48 2.30,150.77 2.25,159.05 2.21,167.33 2.16,175.62 2.12,183.90 2.07,192.19 2.02,200.47 1.98,208.76 1.99,217.04 1.99,225.33 2.00,233.61 2.01,241.89 2.02,250.18 2.03,258.46 2.04,266.75 2.04,275.03 2.05,283.32 2.06,291.60 2.07,299.89 2.08,308.17 2.09,316.45 2.10,324.73 2.11,333.01 2.12,341.29 2.15,349.54 2.17,357.79 2.24,365.94 2.30,374.10 2.54,381.86 2.77,389.61 3.43,395.83 4.10,402.05 7.10,403.16 10.11,404.27 18.14,404.27 26.17,404.28 34.22,404.29 42.28,404.30 50.33,404.31 58.39,404.32 66.45,404.33 74.50,404.34 82.56,404.36 90.61,404.37 98.67,404.38 106.72,404.39 114.78,404.40 122.84,404.41 130.89,404.42 138.95,404.43 147.00,404.44 155.06,404.45 163.11,404.46 171.17,404.47 179.23,404.48 187.28,404.50 195.34,404.51 203.39,404.52 211.45,404.53 219.50,404.54 227.56,404.55 235.62,404.56 243.67,404.57 251.73,404.58 259.78,404.59 267.84,404.60 275.89,404.61 283.95,404.62 292.01,404.64 300.06,404.65 308.12,404.66 316.17,404.67 324.23,404.68 332.28,404.69 340.34,404.70 348.40,404.71 356.45,404.72 364.51,404.73 372.56,404.74 380.62,404.75 388.67,404.76 396.73,404.78 404.79,404.79 412.84,404.80 420.90,404.81 428.95,404.82 437.01,404.80 445.06,404.79 453.12,404.78 461.18,404.76 469.23,404.75 477.29,404.73 485.34,404.72 493.40,404.70 501.45,404.69 509.51,404.68 517.57,404.66 525.62,404.65 533.68,404.63 541.73,404.62 549.79,404.61 557.84,404.59 565.90,404.58 573.96,404.56 582.01,404.55 590.07,404.53 598.12,404.52 606.18,404.51 614.23,404.49 622.29,404.48 630.35,404.46 638.40,404.45 646.46,404.43 654.51,404.42 662.57,404.41 670.62,404.39 678.68,404.38 686.73,404.36 694.78,404.35 702.82,404.34 710.85,404.32 718.87,404.31 726.79,404.29 734.71,404.28 742.24,404.26 749.77,404.25 755.78,404.24 761.78,404.22 761.96,404.24 762.14,404.27 762.31,404.33 762.49,404.40 762.64,404.50 762.79,404.61 762.91,404.74 763.03,404.88 763.12,405.04 763.20,405.21 763.25,405.38 763.29,405.56 763.29,405.75 763.29,405.93 763.25,406.11 763.20,406.29 763.12,406.45 763.03,406.61 762.91,406.75 762.79,406.89 762.64,406.99 762.49,407.10 762.32,407.16 762.14,407.23 761.96,407.25 Z" fill="#1d1d1d" stroke="#1d1d1d" stroke-width="2" pointer-events="none"/></g><g text-align="center" text-anchor="middle" transform="translate(28.00, 31.00) rotate(0.00, 115.50, 48.00)"><g id="2162cedb-4de7-4af1-12c5-70ab140f0795_svg" class="tl-centered-g"><path d="M 141.33,96.43 Q 141.33,96.43 134.98,96.38 128.63,96.33 120.65,96.33 112.68,96.33 104.29,96.38 95.90,96.43 87.41,96.48 78.92,96.53 70.40,96.58 61.88,96.63 53.35,96.68 44.82,96.73 36.30,96.78 27.77,96.83 19.22,96.87 10.67,96.92 6.48,95.09 2.30,93.26 1.19,87.98 0.07,82.69 -0.08,76.77 -0.24,70.84 -0.21,64.79 -0.18,58.73 -0.20,52.63 -0.22,46.52 -0.31,40.41 -0.41,34.30 -0.51,28.19 -0.61,22.07 -0.69,15.92 -0.78,9.77 1.07,6.18 2.93,2.60 10.01,1.61 17.08,0.62 25.20,0.45 33.33,0.29 41.74,0.27 50.14,0.25 58.62,0.27 67.11,0.30 75.61,0.33 84.11,0.36 92.62,0.39 101.13,0.42 109.64,0.41 118.15,0.39 126.65,0.32 135.16,0.26 143.67,0.19 152.18,0.13 160.69,0.06 169.20,-0.00 177.71,-0.06 186.22,-0.13 194.73,-0.19 203.24,-0.26 211.77,-0.32 220.30,-0.38 224.48,1.43 228.65,3.24 229.80,8.55 230.94,13.86 231.13,19.81 231.33,25.76 231.33,31.85 231.34,37.94 231.39,44.07 231.45,50.20 231.58,56.35 231.72,62.49 231.85,68.63 231.98,74.78 232.11,80.96 232.23,87.14 230.38,90.74 228.52,94.34 221.44,95.31 214.35,96.29 206.21,96.44 198.07,96.60 189.64,96.60 181.22,96.60 172.71,96.56 164.21,96.52 155.69,96.48 147.17,96.43 138.64,96.38 130.11,96.33 121.59,96.33 113.06,96.33 104.53,96.38 96.00,96.43 84.55,96.48 73.10,96.53 72.90,96.50 72.70,96.46 72.53,96.37 72.35,96.27 72.21,96.13 72.07,95.98 71.98,95.80 71.90,95.61 71.88,95.41 71.86,95.21 71.90,95.01 71.94,94.81 72.05,94.64 72.15,94.47 72.31,94.34 72.46,94.21 72.65,94.13 72.83,94.06 73.04,94.05 73.24,94.04 73.43,94.09 73.63,94.14 73.80,94.26 73.96,94.37 74.09,94.53 74.21,94.69 74.27,94.88 74.34,95.08 74.34,95.28 74.34,95.48 74.27,95.67 74.21,95.86 74.09,96.02 73.96,96.19 73.80,96.30 73.63,96.41 73.43,96.47 73.24,96.52 73.04,96.51 72.83,96.50 72.65,96.42 72.46,96.35 72.30,96.22 72.15,96.09 72.05,95.91 71.94,95.74 71.90,95.54 71.86,95.35 71.88,95.14 71.90,94.94 71.98,94.76 72.07,94.58 72.21,94.43 72.35,94.28 72.53,94.19 72.70,94.09 72.90,94.06 73.10,94.03 73.10,94.03 73.10,94.03 84.55,94.08 96.00,94.13 104.53,94.18 113.06,94.23 121.59,94.23 130.11,94.23 138.64,94.18 147.17,94.13 155.69,94.08 164.21,94.02 172.70,93.96 181.20,93.90 189.60,93.80 198.00,93.70 206.00,93.45 214.00,93.21 220.37,92.63 226.75,92.05 227.86,89.53 228.96,87.01 229.01,80.90 229.05,74.80 229.11,68.65 229.16,62.50 229.21,56.36 229.26,50.22 229.21,44.10 229.15,37.98 228.96,31.93 228.77,25.88 228.42,20.15 228.06,14.41 227.28,9.80 226.50,5.20 223.36,4.04 220.22,2.89 211.73,2.86 203.24,2.83 194.73,2.80 186.22,2.76 177.71,2.73 169.21,2.69 160.70,2.66 152.19,2.63 143.68,2.59 135.17,2.56 126.66,2.52 118.15,2.49 109.64,2.51 101.13,2.52 92.62,2.59 84.12,2.66 75.62,2.73 67.12,2.80 58.64,2.87 50.16,2.95 41.78,3.07 33.41,3.19 25.42,3.44 17.44,3.70 11.08,4.29 4.71,4.89 3.59,7.40 2.48,9.91 2.40,15.99 2.31,22.07 2.22,28.18 2.13,34.30 2.05,40.41 1.96,46.52 1.98,52.61 2.00,58.70 2.15,64.72 2.31,70.74 2.63,76.45 2.95,82.15 3.70,86.74 4.46,91.32 7.61,92.48 10.76,93.63 19.26,93.68 27.77,93.73 36.30,93.78 44.83,93.83 53.35,93.88 61.88,93.93 70.40,93.98 78.92,94.03 87.41,94.08 95.90,94.13 104.29,94.18 112.68,94.23 120.65,94.23 128.63,94.23 134.98,94.18 141.33,94.13 141.47,94.15 141.61,94.16 141.74,94.21 141.87,94.26 141.98,94.34 142.10,94.42 142.19,94.52 142.28,94.63 142.35,94.75 142.41,94.87 142.44,95.01 142.48,95.14 142.48,95.28 142.48,95.42 142.44,95.55 142.41,95.69 142.35,95.81 142.28,95.93 142.19,96.04 142.10,96.14 141.98,96.22 141.87,96.30 141.74,96.35 141.61,96.40 141.47,96.41 Z" fill="#1d1d1d" stroke="#1d1d1d" stroke-width="2" pointer-events="none"/></g><g fill="#1d1d1d" transform-origin="top left" transform="translate(115.5, 29)"><text y="18.2" letter-spacing="-0.84" font-size="28px" font-family="Caveat Brush" text-align="left" alignment-baseline="central">R$ 50,00</text></g></g><g text-align="center" text-anchor="middle" transform="translate(33.00, 143.00) rotate(0.00, 112.00, 101.00)"><g id="405b4334-5bc3-4ebf-0f0c-f5bc0da704a3_svg" class="tl-centered-g"><path d="M 136.83,202.36 Q 136.83,202.36 130.69,202.33 124.54,202.30 116.83,202.32 109.12,202.34 101.01,202.42 92.89,202.50 84.68,202.57 76.47,202.65 68.23,202.72 59.99,202.80 51.74,202.88 43.49,202.95 35.25,203.03 27.00,203.10 18.73,203.18 10.45,203.25 6.32,201.38 2.18,199.51 1.07,192.26 -0.03,185.02 -0.22,176.64 -0.40,168.26 -0.40,159.59 -0.41,150.93 -0.36,142.18 -0.32,133.44 -0.27,124.68 -0.22,115.91 -0.22,107.14 -0.22,98.37 -0.28,89.60 -0.34,80.83 -0.41,72.06 -0.47,63.29 -0.53,54.52 -0.59,45.75 -0.65,36.97 -0.71,28.20 -0.77,19.41 -0.83,10.62 1.03,6.35 2.90,2.08 9.75,0.94 16.60,-0.19 24.49,-0.37 32.38,-0.55 40.52,-0.54 48.67,-0.53 56.88,-0.47 65.10,-0.42 73.33,-0.35 81.56,-0.28 89.80,-0.21 98.03,-0.14 106.27,-0.12 114.51,-0.10 122.75,-0.13 130.99,-0.16 139.23,-0.18 147.47,-0.21 155.71,-0.24 163.95,-0.27 172.18,-0.30 180.42,-0.33 188.66,-0.35 196.90,-0.38 205.16,-0.41 213.43,-0.43 217.56,1.44 221.69,3.31 222.81,10.52 223.93,17.74 224.12,26.06 224.31,34.39 224.33,43.00 224.34,51.61 224.31,60.30 224.28,68.99 224.24,77.69 224.20,86.40 224.21,95.12 224.23,103.83 224.30,112.54 224.38,121.26 224.45,129.97 224.52,138.69 224.59,147.40 224.67,156.12 224.74,164.83 224.81,173.55 224.88,182.28 224.95,191.02 223.09,195.27 221.23,199.52 214.37,200.70 207.51,201.87 199.62,202.09 191.72,202.32 183.56,202.35 175.41,202.39 167.19,202.38 158.96,202.38 150.72,202.36 142.48,202.34 134.23,202.31 125.98,202.29 117.73,202.32 109.49,202.34 101.24,202.42 92.99,202.50 81.92,202.58 70.84,202.67 70.64,202.63 70.44,202.60 70.27,202.51 70.09,202.41 69.95,202.27 69.81,202.12 69.72,201.94 69.64,201.75 69.61,201.55 69.59,201.35 69.63,201.15 69.68,200.96 69.78,200.78 69.88,200.61 70.04,200.48 70.19,200.35 70.38,200.27 70.57,200.20 70.77,200.18 70.97,200.17 71.17,200.23 71.36,200.28 71.53,200.39 71.70,200.51 71.82,200.67 71.94,200.83 72.01,201.02 72.07,201.21 72.07,201.41 72.07,201.61 72.01,201.81 71.95,202.00 71.82,202.16 71.70,202.32 71.54,202.43 71.37,202.55 71.17,202.60 70.98,202.66 70.78,202.65 70.58,202.64 70.39,202.56 70.20,202.49 70.04,202.36 69.89,202.23 69.79,202.05 69.68,201.88 69.64,201.68 69.59,201.49 69.61,201.29 69.63,201.08 69.72,200.90 69.80,200.72 69.94,200.57 70.08,200.42 70.26,200.33 70.44,200.23 70.64,200.20 70.84,200.17 70.84,200.17 70.84,200.17 81.91,200.18 92.98,200.20 101.23,200.22 109.48,200.24 117.73,200.22 125.97,200.19 134.22,200.11 142.47,200.04 150.71,199.96 158.95,199.88 167.16,199.78 175.38,199.69 183.50,199.56 191.62,199.42 199.34,199.11 207.06,198.80 213.25,198.04 219.44,197.29 220.56,194.11 221.67,190.94 221.71,182.24 221.75,173.55 221.79,164.84 221.84,156.12 221.89,147.41 221.93,138.69 221.98,129.98 222.02,121.26 222.07,112.55 222.11,103.83 222.10,95.12 222.08,86.41 222.01,77.70 221.93,68.99 221.84,60.31 221.75,51.63 221.62,43.05 221.49,34.47 221.19,26.31 220.89,18.14 220.16,11.61 219.43,5.07 216.38,3.95 213.32,2.84 205.11,2.77 196.89,2.71 188.65,2.64 180.42,2.56 172.18,2.49 163.94,2.42 155.70,2.35 147.46,2.28 139.22,2.21 130.98,2.13 122.75,2.06 114.51,1.99 106.27,1.97 98.03,1.95 89.79,1.98 81.56,2.01 73.33,2.04 65.09,2.07 56.89,2.12 48.68,2.16 40.57,2.25 32.46,2.34 24.75,2.61 17.04,2.87 10.85,3.60 4.67,4.33 3.56,7.52 2.45,10.70 2.39,19.45 2.34,28.20 2.28,36.97 2.23,45.75 2.17,54.52 2.11,63.29 2.06,72.06 2.00,80.83 1.94,89.60 1.89,98.37 1.89,107.14 1.89,115.91 1.96,124.67 2.02,133.44 2.10,142.17 2.18,150.91 2.30,159.54 2.42,168.18 2.70,176.40 2.99,184.61 3.72,191.19 4.44,197.77 7.49,198.87 10.54,199.97 18.76,199.99 26.99,200.00 35.24,200.03 43.49,200.05 51.73,200.08 59.98,200.10 68.22,200.12 76.46,200.15 84.67,200.17 92.89,200.20 101.00,200.22 109.11,200.24 116.82,200.22 124.54,200.20 130.68,200.13 136.83,200.06 136.96,200.07 137.10,200.09 137.23,200.14 137.36,200.19 137.48,200.27 137.59,200.34 137.68,200.45 137.77,200.55 137.84,200.67 137.90,200.80 137.94,200.93 137.97,201.06 137.97,201.20 137.97,201.34 137.94,201.48 137.91,201.61 137.84,201.73 137.78,201.86 137.69,201.96 137.60,202.07 137.48,202.14 137.37,202.22 137.24,202.27 137.11,202.32 136.97,202.34 Z" fill="#1d1d1d" stroke="#1d1d1d" stroke-width="2" pointer-events="none"/></g><g fill="#1d1d1d" transform-origin="top left" transform="translate(112, 82)"><text y="18.2" letter-spacing="-0.84" font-size="28px" font-family="Caveat Brush" text-align="left" alignment-baseline="central"> </text></g></g><g id="a7ffbf6a-6117-4dff-245a-bc38e53e0b87_svg" class="tl-centered-g" transform="translate(52.00, 163.00) rotate(0.00, 93.00, 18.00)"><path d="M 92.91,-0.04 Q 92.91,-0.04 99.43,-0.13 105.96,-0.22 114.16,-0.31 122.35,-0.41 130.97,-0.50 139.58,-0.60 148.31,-0.70 157.03,-0.80 165.81,-0.89 174.59,-0.98 178.69,0.63 182.80,2.25 183.99,4.36 185.18,6.46 185.40,8.54 185.63,10.61 185.60,12.52 185.57,14.43 185.58,16.29 185.59,18.16 185.68,20.01 185.77,21.86 185.86,23.71 185.95,25.57 186.01,27.52 186.06,29.47 184.24,31.94 182.41,34.41 175.11,35.05 167.82,35.70 159.51,35.76 151.19,35.82 142.56,35.78 133.93,35.74 125.21,35.68 116.50,35.62 107.76,35.55 99.03,35.49 90.29,35.55 81.55,35.61 72.80,35.67 64.06,35.73 55.32,35.79 46.58,35.85 37.83,35.91 29.09,35.97 20.32,36.03 11.56,36.08 7.46,34.46 3.37,32.83 2.16,30.77 0.94,28.71 0.69,26.68 0.44,24.65 0.44,22.79 0.44,20.93 0.40,19.13 0.36,17.32 0.24,15.52 0.12,13.72 0.00,11.92 -0.11,10.12 -0.19,8.22 -0.27,6.32 1.53,3.86 3.35,1.40 10.66,0.73 17.96,0.06 26.30,-0.03 34.63,-0.12 43.28,-0.12 51.93,-0.12 60.67,-0.10 69.40,-0.07 78.16,-0.04 86.91,-0.01 95.67,-0.11 104.43,-0.21 116.20,-0.32 127.96,-0.43 128.16,-0.40 128.36,-0.36 128.54,-0.27 128.72,-0.17 128.86,-0.03 129.00,0.11 129.09,0.30 129.17,0.48 129.20,0.68 129.22,0.89 129.18,1.08 129.13,1.28 129.03,1.46 128.92,1.63 128.77,1.77 128.61,1.90 128.43,1.98 128.24,2.05 128.03,2.06 127.83,2.07 127.63,2.02 127.44,1.97 127.27,1.85 127.10,1.74 126.97,1.58 126.85,1.42 126.78,1.22 126.72,1.03 126.72,0.83 126.72,0.62 126.78,0.43 126.85,0.24 126.97,0.07 127.09,-0.08 127.26,-0.20 127.43,-0.31 127.62,-0.37 127.82,-0.42 128.02,-0.41 128.23,-0.40 128.42,-0.33 128.61,-0.25 128.76,-0.12 128.92,0.00 129.02,0.18 129.13,0.35 129.17,0.55 129.22,0.75 129.20,0.95 129.18,1.15 129.09,1.34 129.01,1.53 128.87,1.67 128.73,1.82 128.55,1.92 128.37,2.01 128.17,2.05 127.97,2.08 127.97,2.08 127.97,2.08 116.20,2.06 104.44,2.04 95.68,2.01 86.92,1.98 78.17,2.08 69.41,2.18 60.68,2.28 51.95,2.39 43.32,2.52 34.68,2.65 26.44,2.87 18.19,3.09 11.68,3.46 5.18,3.83 4.03,5.27 2.88,6.71 2.84,8.39 2.81,10.08 2.74,11.88 2.67,13.68 2.61,15.47 2.55,17.27 2.58,19.05 2.62,20.83 2.80,22.56 2.97,24.28 3.24,25.81 3.52,27.34 4.24,28.71 4.96,30.09 8.30,31.44 11.65,32.80 20.37,32.87 29.09,32.93 37.83,33.00 46.58,33.07 55.32,33.14 64.06,33.21 72.80,33.28 81.55,33.35 90.29,33.42 99.03,33.49 107.76,33.42 116.50,33.36 125.21,33.29 133.92,33.22 142.53,33.13 151.15,33.04 159.38,32.85 167.60,32.67 174.10,32.32 180.59,31.97 181.75,30.51 182.90,29.06 182.96,27.31 183.03,25.56 183.12,23.71 183.22,21.86 183.31,20.02 183.40,18.17 183.39,16.33 183.38,14.50 183.24,12.72 183.09,10.94 182.84,9.36 182.58,7.78 181.88,6.38 181.18,4.97 177.85,3.63 174.51,2.29 165.78,2.26 157.05,2.23 148.32,2.20 139.59,2.17 130.98,2.14 122.36,2.10 114.16,2.07 105.97,2.03 99.44,1.99 92.91,1.95 92.79,1.94 92.67,1.92 92.56,1.88 92.45,1.84 92.35,1.77 92.25,1.70 92.17,1.61 92.09,1.52 92.03,1.42 91.98,1.31 91.95,1.19 91.92,1.08 91.92,0.96 91.92,0.84 91.94,0.72 91.97,0.60 92.03,0.49 92.08,0.39 92.16,0.30 92.24,0.21 92.34,0.14 92.44,0.07 92.55,0.03 92.67,-0.01 92.79,-0.02 Z" fill="#1d1d1d" stroke="#1d1d1d" stroke-width="2" pointer-events="none"/></g><g id="85d3a81d-6e94-433f-0735-e656052847e3_svg" class="tl-centered-g" transform="translate(57.00, 212.00) rotate(0.00, 91.00, 15.50)"><path d="M -0.18,10.38 Q -0.18,10.38 -0.24,9.26 -0.30,8.14 -0.31,6.64 -0.32,5.14 1.50,2.80 3.33,0.46 10.53,-0.14 17.73,-0.75 25.92,-0.80 34.11,-0.85 42.60,-0.81 51.10,-0.78 59.68,-0.71 68.26,-0.65 76.86,-0.59 85.47,-0.52 94.07,-0.58 102.68,-0.64 111.29,-0.70 119.90,-0.77 128.50,-0.83 137.11,-0.89 145.72,-0.95 154.33,-1.01 162.96,-1.07 171.59,-1.12 175.64,0.48 179.69,2.09 180.88,3.96 182.07,5.84 182.32,7.65 182.57,9.47 182.56,11.10 182.54,12.73 182.57,14.30 182.59,15.87 182.70,17.43 182.80,18.98 182.91,20.54 183.01,22.10 183.07,23.76 183.14,25.43 181.31,27.82 179.49,30.22 172.27,30.81 165.05,31.40 156.82,31.42 148.60,31.43 140.06,31.36 131.53,31.28 122.91,31.18 114.29,31.07 105.66,30.97 97.02,30.86 88.37,30.88 79.73,30.90 71.08,30.92 62.44,30.94 53.79,30.96 45.14,30.98 36.50,31.00 27.85,31.02 19.18,31.03 10.51,31.05 6.46,29.42 2.40,27.80 1.24,25.96 0.09,24.12 -0.10,22.35 -0.30,20.58 -0.23,19.01 -0.16,17.44 -0.13,15.92 -0.10,14.41 -0.15,12.91 -0.21,11.41 -0.24,9.39 -0.27,7.38 -0.23,7.15 -0.18,6.92 -0.07,6.71 0.04,6.51 0.22,6.35 0.39,6.19 0.61,6.10 0.83,6.00 1.06,5.98 1.30,5.97 1.53,6.02 1.76,6.08 1.96,6.21 2.16,6.34 2.31,6.52 2.45,6.71 2.54,6.93 2.62,7.15 2.62,7.39 2.63,7.63 2.56,7.85 2.49,8.08 2.35,8.27 2.21,8.46 2.02,8.60 1.83,8.74 1.60,8.81 1.37,8.88 1.14,8.87 0.90,8.86 0.68,8.78 0.46,8.70 0.27,8.55 0.09,8.40 -0.03,8.20 -0.16,8.00 -0.21,7.77 -0.27,7.54 -0.25,7.30 -0.23,7.07 -0.14,6.85 -0.04,6.63 0.11,6.46 0.26,6.28 0.47,6.17 0.68,6.05 0.91,6.01 1.14,5.96 1.38,5.99 1.61,6.03 1.82,6.13 2.04,6.24 2.20,6.41 2.37,6.57 2.47,6.79 2.58,7.00 2.61,7.23 2.64,7.47 2.64,7.47 2.64,7.47 2.49,9.47 2.34,11.48 2.21,12.96 2.07,14.45 2.05,15.93 2.02,17.41 2.12,18.83 2.23,20.25 2.43,21.47 2.63,22.70 3.29,23.85 3.95,25.01 7.29,26.39 10.62,27.77 19.24,27.87 27.87,27.98 36.51,28.09 45.16,28.20 53.80,28.31 62.45,28.42 71.09,28.53 79.74,28.64 88.38,28.75 97.03,28.86 105.67,28.84 114.30,28.81 122.92,28.79 131.53,28.76 140.05,28.71 148.57,28.65 156.71,28.51 164.85,28.37 171.27,28.06 177.69,27.76 178.84,26.38 179.99,25.00 180.04,23.56 180.08,22.12 180.16,20.56 180.25,19.01 180.33,17.46 180.41,15.90 180.38,14.36 180.36,12.83 180.20,11.35 180.04,9.87 179.80,8.58 179.55,7.29 178.85,6.09 178.15,4.89 174.82,3.52 171.50,2.15 162.92,2.08 154.33,2.02 145.72,1.95 137.11,1.88 128.50,1.81 119.89,1.74 111.29,1.68 102.68,1.61 94.07,1.54 85.47,1.47 76.87,1.53 68.26,1.60 59.69,1.67 51.11,1.73 42.63,1.83 34.15,1.92 26.04,2.10 17.94,2.28 11.54,2.60 5.15,2.93 3.98,4.29 2.81,5.64 2.72,6.94 2.62,8.23 2.49,9.34 2.37,10.45 2.34,10.61 2.32,10.76 2.26,10.90 2.20,11.04 2.11,11.17 2.02,11.29 1.90,11.39 1.78,11.49 1.65,11.56 1.51,11.63 1.36,11.66 1.21,11.69 1.05,11.69 0.90,11.68 0.75,11.64 0.60,11.60 0.47,11.52 0.33,11.45 0.22,11.34 0.11,11.24 0.02,11.11 -0.05,10.98 -0.10,10.83 -0.15,10.69 -0.16,10.53 Z" fill="#1d1d1d" stroke="#1d1d1d" stroke-width="2" pointer-events="none"/></g><g id="60a36ce2-71e7-4ebf-00a8-3774810c876f_svg" class="tl-centered-g" transform="translate(57.00, 252.00) rotate(0.00, 90.00, 14.50)"><path d="M 90.13,29.15 Q 90.13,29.15 83.77,29.22 77.40,29.28 69.42,29.34 61.44,29.40 53.04,29.46 44.64,29.53 36.14,29.59 27.64,29.65 19.09,29.71 10.53,29.76 6.51,28.16 2.48,26.55 1.35,24.79 0.22,23.03 0.04,21.36 -0.12,19.68 -0.03,18.21 0.06,16.74 0.11,15.33 0.16,13.93 0.14,12.53 0.11,11.13 0.08,9.74 0.06,8.35 0.07,6.86 0.08,5.37 1.92,3.05 3.76,0.72 10.88,0.10 18.00,-0.51 26.09,-0.58 34.18,-0.64 42.57,-0.62 50.96,-0.60 59.44,-0.55 67.91,-0.51 76.40,-0.45 84.90,-0.40 93.40,-0.48 101.90,-0.56 110.40,-0.63 118.90,-0.71 127.40,-0.79 135.90,-0.86 144.40,-0.94 152.90,-1.02 161.42,-1.09 169.95,-1.16 173.96,0.43 177.98,2.03 179.14,3.79 180.31,5.56 180.54,7.24 180.77,8.93 180.73,10.42 180.69,11.91 180.69,13.34 180.69,14.77 180.78,16.18 180.86,17.60 180.94,19.01 181.02,20.42 181.05,21.94 181.09,23.46 179.27,25.80 177.45,28.15 170.30,28.76 163.16,29.37 155.03,29.43 146.91,29.48 138.48,29.44 130.05,29.41 121.54,29.35 113.03,29.29 104.50,29.22 95.97,29.15 87.43,29.22 78.89,29.28 67.43,29.34 55.97,29.40 55.77,29.37 55.57,29.33 55.39,29.24 55.21,29.14 55.07,29.00 54.93,28.85 54.84,28.66 54.76,28.48 54.74,28.27 54.71,28.07 54.76,27.87 54.80,27.67 54.91,27.50 55.01,27.32 55.17,27.19 55.32,27.06 55.51,26.99 55.70,26.91 55.91,26.90 56.11,26.89 56.31,26.94 56.50,27.00 56.67,27.11 56.84,27.23 56.96,27.39 57.09,27.55 57.15,27.74 57.22,27.94 57.22,28.14 57.22,28.35 57.15,28.54 57.09,28.73 56.96,28.89 56.84,29.06 56.67,29.17 56.50,29.28 56.30,29.34 56.11,29.39 55.90,29.38 55.70,29.37 55.51,29.30 55.32,29.22 55.17,29.09 55.01,28.96 54.91,28.78 54.80,28.61 54.76,28.41 54.71,28.21 54.74,28.01 54.76,27.80 54.84,27.62 54.93,27.43 55.07,27.29 55.21,27.14 55.39,27.04 55.57,26.95 55.77,26.91 55.97,26.88 55.97,26.88 55.97,26.88 67.43,26.95 78.89,27.02 87.43,27.09 95.97,27.15 104.50,27.09 113.03,27.03 121.54,26.96 130.04,26.89 138.46,26.79 146.87,26.70 154.91,26.52 162.95,26.34 169.28,26.01 175.62,25.69 176.79,24.34 177.95,22.98 178.02,21.69 178.09,20.39 178.19,18.98 178.30,17.58 178.41,16.17 178.51,14.77 178.51,13.38 178.51,11.99 178.38,10.66 178.25,9.33 178.03,8.19 177.81,7.05 177.14,5.95 176.46,4.86 173.16,3.49 169.86,2.11 161.38,2.06 152.90,2.01 144.40,1.96 135.90,1.91 127.40,1.85 118.90,1.80 110.40,1.75 101.90,1.69 93.40,1.64 84.90,1.59 76.41,1.67 67.91,1.74 59.45,1.83 50.98,1.91 42.60,2.02 34.22,2.13 26.22,2.32 18.21,2.51 11.90,2.85 5.59,3.19 4.41,4.55 3.23,5.91 3.11,7.20 2.98,8.49 2.82,9.87 2.66,11.25 2.50,12.63 2.35,14.01 2.29,15.38 2.24,16.75 2.32,18.06 2.40,19.37 2.57,20.48 2.75,21.59 3.38,22.67 4.02,23.74 7.32,25.11 10.63,26.48 19.13,26.55 27.64,26.61 36.14,26.68 44.64,26.75 53.04,26.81 61.44,26.88 69.42,26.95 77.40,27.02 83.77,27.09 90.13,27.15 90.25,27.17 90.37,27.18 90.48,27.23 90.59,27.27 90.69,27.34 90.79,27.41 90.87,27.50 90.95,27.59 91.01,27.69 91.06,27.80 91.09,27.92 91.12,28.03 91.12,28.15 91.12,28.27 91.09,28.39 91.06,28.51 91.01,28.62 90.95,28.72 90.87,28.81 90.79,28.90 90.69,28.97 90.59,29.04 90.48,29.08 90.37,29.12 90.25,29.14 Z" fill="#1d1d1d" stroke="#1d1d1d" stroke-width="2" pointer-events="none"/></g><g id="726fb80a-49f2-49f5-0f11-823b668f5e64_svg" class="tl-centered-g" transform="translate(57.00, 295.00) rotate(0.00, 91.50, 16.00)"><path d="M 91.37,31.78 Q 91.37,31.78 84.97,31.82 78.58,31.86 70.55,31.89 62.52,31.93 54.07,31.96 45.63,31.99 37.08,32.02 28.53,32.05 19.93,32.07 11.33,32.10 7.29,30.49 3.26,28.87 2.03,26.98 0.80,25.09 0.50,23.27 0.20,21.44 0.15,19.78 0.11,18.13 0.03,16.54 -0.04,14.94 -0.20,13.37 -0.36,11.79 -0.52,10.21 -0.68,8.64 -0.80,6.93 -0.92,5.23 0.88,2.82 2.69,0.41 9.93,-0.17 17.18,-0.77 25.44,-0.78 33.70,-0.79 42.27,-0.71 50.85,-0.63 59.50,-0.52 68.16,-0.41 76.84,-0.30 85.51,-0.19 94.20,-0.20 102.88,-0.22 111.56,-0.24 120.25,-0.25 128.93,-0.27 137.62,-0.28 146.31,-0.30 154.99,-0.31 163.70,-0.32 172.41,-0.33 176.48,1.29 180.55,2.92 181.69,4.81 182.82,6.71 182.99,8.53 183.15,10.36 183.05,11.99 182.95,13.62 182.89,15.19 182.83,16.76 182.85,18.33 182.87,19.89 182.89,21.45 182.91,23.02 182.89,24.67 182.88,26.32 181.03,28.69 179.19,31.07 172.00,31.66 164.82,32.26 156.65,32.29 148.48,32.32 140.00,32.25 131.52,32.18 122.96,32.09 114.41,32.00 105.83,31.90 97.25,31.80 88.66,31.83 80.07,31.87 68.55,31.88 57.02,31.90 56.82,31.87 56.62,31.84 56.44,31.74 56.26,31.64 56.12,31.49 55.98,31.35 55.90,31.16 55.81,30.98 55.79,30.77 55.77,30.57 55.82,30.37 55.86,30.17 55.97,30.00 56.07,29.82 56.23,29.69 56.38,29.56 56.57,29.49 56.76,29.41 56.97,29.40 57.17,29.39 57.37,29.45 57.56,29.50 57.73,29.62 57.90,29.73 58.02,29.89 58.14,30.06 58.21,30.25 58.27,30.44 58.27,30.65 58.27,30.85 58.20,31.05 58.14,31.24 58.01,31.40 57.89,31.56 57.72,31.68 57.55,31.79 57.36,31.84 57.16,31.90 56.96,31.88 56.75,31.87 56.56,31.80 56.37,31.72 56.22,31.59 56.06,31.45 55.96,31.28 55.86,31.10 55.81,30.91 55.77,30.71 55.79,30.50 55.82,30.30 55.90,30.12 55.99,29.93 56.13,29.78 56.27,29.64 56.45,29.54 56.63,29.45 56.83,29.42 57.03,29.38 57.03,29.38 57.03,29.38 68.56,29.49 80.08,29.61 88.67,29.70 97.25,29.80 105.83,29.77 114.41,29.74 122.97,29.70 131.52,29.66 139.99,29.60 148.45,29.54 156.53,29.38 164.61,29.23 170.99,28.92 177.37,28.61 178.55,27.20 179.72,25.80 179.85,24.34 179.99,22.88 180.15,21.33 180.32,19.78 180.48,18.23 180.65,16.68 180.70,15.14 180.76,13.60 180.69,12.12 180.61,10.63 180.43,9.35 180.25,8.07 179.61,6.88 178.97,5.68 175.63,4.31 172.30,2.94 163.64,2.83 154.97,2.72 146.29,2.60 137.60,2.49 128.92,2.37 120.24,2.26 111.55,2.14 102.87,2.03 94.18,1.92 85.50,1.80 76.82,1.82 68.15,1.84 59.49,1.86 50.84,1.88 42.28,1.93 33.73,1.98 25.55,2.12 17.38,2.26 10.93,2.56 4.49,2.86 3.35,4.23 2.21,5.61 2.22,7.06 2.23,8.51 2.21,10.09 2.18,11.68 2.16,13.25 2.13,14.83 2.21,16.40 2.29,17.96 2.50,19.46 2.71,20.96 3.00,22.28 3.30,23.60 4.05,24.83 4.79,26.05 8.11,27.44 11.43,28.82 19.98,28.91 28.54,29.01 37.09,29.11 45.64,29.21 54.09,29.31 62.53,29.41 70.56,29.50 78.59,29.60 84.98,29.69 91.38,29.78 91.50,29.80 91.62,29.81 91.73,29.85 91.84,29.90 91.94,29.97 92.04,30.04 92.12,30.13 92.20,30.22 92.26,30.32 92.31,30.43 92.34,30.55 92.37,30.67 92.37,30.79 92.37,30.91 92.34,31.02 92.31,31.14 92.25,31.25 92.20,31.35 92.12,31.44 92.04,31.53 91.94,31.60 91.84,31.67 91.72,31.71 91.61,31.75 91.49,31.77 Z" fill="#1d1d1d" stroke="#1d1d1d" stroke-width="2" pointer-events="none"/></g><g id="9e6bb13f-2d4f-4245-2b7d-d9aa80c8ddc7_svg" class="tl-centered-g" transform="translate(28.00, 361.00) rotate(0.00, 115.00, 27.00)"><path d="M -0.47,17.94 Q -0.47,17.94 -0.58,15.57 -0.70,13.20 -0.79,10.15 -0.89,7.10 0.93,4.33 2.76,1.56 9.83,0.79 16.90,0.02 24.95,-0.10 33.01,-0.22 41.37,-0.23 49.72,-0.25 58.16,-0.23 66.59,-0.22 75.04,-0.20 83.50,-0.18 91.95,-0.16 100.41,-0.13 108.87,-0.16 117.33,-0.19 125.79,-0.26 134.25,-0.34 142.71,-0.42 151.17,-0.49 159.63,-0.57 168.09,-0.65 176.55,-0.73 185.01,-0.80 193.47,-0.88 201.93,-0.96 210.41,-1.03 218.90,-1.10 223.00,0.61 227.10,2.32 228.23,5.42 229.36,8.51 229.51,11.75 229.67,14.98 229.61,18.15 229.55,21.32 229.54,24.48 229.53,27.64 229.60,30.81 229.67,33.97 229.73,37.13 229.80,40.29 229.84,43.52 229.89,46.75 228.04,49.56 226.20,52.37 219.15,53.17 212.10,53.96 204.07,54.10 196.04,54.23 187.71,54.26 179.39,54.28 170.98,54.28 162.58,54.28 154.16,54.26 145.74,54.25 137.31,54.24 128.88,54.23 120.45,54.26 112.02,54.30 103.59,54.39 95.16,54.47 86.73,54.56 78.30,54.65 69.87,54.73 61.44,54.82 53.02,54.91 44.59,54.99 36.16,55.08 27.73,55.17 19.27,55.25 10.82,55.33 6.73,53.63 2.64,51.92 1.47,48.81 0.30,45.71 0.09,42.46 -0.11,39.21 -0.11,36.02 -0.10,32.83 -0.15,29.65 -0.19,26.47 -0.32,23.29 -0.44,20.11 -0.58,15.85 -0.71,11.58 -0.67,11.35 -0.64,11.11 -0.53,10.90 -0.42,10.69 -0.25,10.53 -0.08,10.36 0.12,10.26 0.34,10.16 0.57,10.13 0.81,10.11 1.04,10.15 1.27,10.20 1.48,10.32 1.68,10.44 1.84,10.62 1.99,10.80 2.08,11.02 2.17,11.24 2.19,11.48 2.20,11.71 2.14,11.94 2.08,12.17 1.95,12.37 1.82,12.57 1.63,12.71 1.44,12.86 1.22,12.93 0.99,13.01 0.76,13.01 0.52,13.02 0.29,12.94 0.07,12.87 -0.11,12.73 -0.30,12.59 -0.43,12.39 -0.57,12.20 -0.64,11.97 -0.70,11.74 -0.69,11.50 -0.68,11.27 -0.59,11.05 -0.51,10.83 -0.36,10.64 -0.20,10.46 -0.00,10.34 0.19,10.21 0.42,10.16 0.65,10.11 0.89,10.13 1.12,10.15 1.34,10.25 1.55,10.35 1.73,10.51 1.90,10.67 2.01,10.88 2.13,11.09 2.17,11.32 2.21,11.56 2.21,11.56 2.21,11.55 2.16,15.82 2.10,20.09 2.04,23.26 1.98,26.44 2.03,29.60 2.07,32.77 2.25,35.88 2.43,38.99 2.75,41.88 3.07,44.77 3.80,47.15 4.52,49.54 7.71,50.79 10.90,52.05 19.31,52.06 27.71,52.07 36.14,52.08 44.57,52.09 53.00,52.11 61.43,52.12 69.86,52.13 78.29,52.15 86.72,52.16 95.15,52.17 103.58,52.19 112.01,52.20 120.44,52.16 128.87,52.13 137.30,52.04 145.72,51.95 154.15,51.86 162.57,51.78 170.97,51.68 179.36,51.58 187.67,51.46 195.97,51.34 203.90,51.10 211.82,50.87 218.10,50.44 224.37,50.01 225.52,48.23 226.67,46.45 226.77,43.36 226.87,40.27 226.99,37.11 227.11,33.95 227.22,30.79 227.34,27.64 227.35,24.49 227.36,21.34 227.24,18.25 227.12,15.15 226.85,12.28 226.58,9.41 225.89,7.04 225.20,4.67 222.00,3.42 218.81,2.17 210.38,2.15 201.94,2.13 193.48,2.11 185.02,2.09 176.56,2.06 168.10,2.04 159.64,2.02 151.18,2.00 142.72,1.97 134.26,1.95 125.80,1.93 117.34,1.90 108.88,1.93 100.42,1.96 91.96,2.03 83.50,2.11 75.05,2.19 66.60,2.27 58.17,2.36 49.74,2.44 41.41,2.56 33.08,2.67 25.12,2.89 17.17,3.11 10.88,3.52 4.58,3.94 3.45,5.66 2.31,7.39 2.27,10.28 2.22,13.18 2.15,15.55 2.08,17.91 2.06,18.07 2.05,18.22 1.99,18.37 1.94,18.51 1.85,18.64 1.77,18.77 1.65,18.87 1.54,18.97 1.40,19.04 1.27,19.12 1.12,19.16 0.97,19.19 0.81,19.20 0.66,19.20 0.51,19.16 0.36,19.13 0.22,19.06 0.08,18.99 -0.02,18.88 -0.14,18.78 -0.23,18.66 -0.32,18.53 -0.37,18.39 -0.43,18.24 -0.45,18.09 Z" fill="#1d1d1d" stroke="#1d1d1d" stroke-width="2" pointer-events="none"/></g><g id="01966d07-1353-4dc3-3bbd-67425f6df382_svg" class="tl-centered-g" transform="translate(47.00, 373.00) rotate(0.00, 16.50, 15.00)"><path d="M 24.70,2.57 Q 24.70,2.57 28.37,4.90 32.04,7.22 33.09,10.45 34.13,13.67 33.31,17.61 32.49,21.55 29.10,24.93 25.72,28.31 20.37,29.43 15.01,30.54 9.76,28.41 4.50,26.28 1.87,21.56 -0.75,16.84 0.51,11.80 1.78,6.75 6.01,3.64 10.23,0.52 15.21,0.18 20.19,-0.16 24.08,1.59 27.96,3.34 30.00,5.99 32.04,8.64 32.35,11.03 32.66,13.41 32.65,13.41 32.65,13.41 32.64,13.42 32.64,13.42 31.65,11.56 30.67,9.69 28.78,7.54 26.90,5.38 23.54,3.77 20.19,2.15 15.80,2.33 11.41,2.52 7.65,5.10 3.88,7.68 2.65,11.93 1.43,16.18 3.58,20.20 5.72,24.23 10.24,26.15 14.76,28.06 19.42,27.18 24.08,26.30 26.98,23.51 29.89,20.73 30.59,17.55 31.28,14.38 30.51,11.89 29.73,9.41 27.21,6.00 Z" fill="#1d1d1d" stroke="#1d1d1d" stroke-width="2" pointer-events="none" stroke-linecap="round" stroke-linejoin="round"/></g><g id="e76adb86-1b24-4f8b-31b6-55209f238e6d_svg" class="tl-centered-g" transform="translate(94.50, 373.50) rotate(0.00, 16.50, 15.00)"><path d="M 18.11,1.65 Q 18.11,1.65 20.48,1.33 22.85,1.01 25.48,2.07 28.11,3.12 30.67,5.62 33.23,8.11 34.22,12.00 35.21,15.90 33.12,20.06 31.03,24.22 25.82,26.74 20.60,29.26 14.26,28.60 7.91,27.94 3.54,24.09 -0.81,20.23 -0.87,15.14 -0.93,10.05 2.91,6.34 6.76,2.62 12.15,1.55 17.54,0.48 22.13,1.67 26.72,2.85 29.40,5.19 32.09,7.53 32.83,9.84 33.57,12.16 33.56,12.16 33.56,12.16 33.55,12.17 33.55,12.17 32.25,10.49 30.95,8.82 28.50,6.94 26.04,5.06 21.96,3.92 17.87,2.78 13.03,3.61 8.18,4.44 4.69,7.53 1.20,10.62 1.13,14.82 1.06,19.03 4.75,22.31 8.44,25.60 14.08,26.26 19.72,26.93 24.34,24.84 28.95,22.76 30.77,19.42 32.60,16.08 31.83,13.05 31.07,10.02 28.92,8.01 26.78,6.00 24.55,4.94 22.33,3.87 20.22,2.77 Z" fill="#1d1d1d" stroke="#1d1d1d" stroke-width="2" pointer-events="none" stroke-linecap="round" stroke-linejoin="round"/></g><g id="8562b789-9fe4-4fa5-24bf-0db5d96e260d_svg" class="tl-centered-g" transform="translate(148.50, 373.50) rotate(0.00, 16.50, 15.00)"><path d="M 10.86,2.36 Q 10.86,2.36 12.89,1.18 14.91,-0.00 17.80,0.12 20.68,0.24 24.18,1.69 27.67,3.14 30.51,6.35 33.35,9.55 33.64,14.09 33.94,18.64 30.61,22.68 27.27,26.73 21.32,28.16 15.37,29.59 9.63,27.47 3.90,25.35 1.30,20.68 -1.28,16.02 0.28,11.36 1.85,6.69 6.13,4.00 10.41,1.31 15.08,1.00 19.74,0.68 23.23,2.01 26.72,3.33 28.45,5.29 30.17,7.26 30.16,7.26 30.16,7.27 30.16,7.27 30.15,7.27 28.11,6.16 26.07,5.05 22.94,4.03 19.81,3.01 15.65,3.19 11.50,3.37 7.68,5.57 3.87,7.77 2.38,11.65 0.89,15.52 2.98,19.41 5.08,23.31 10.06,25.22 15.05,27.14 20.30,26.00 25.55,24.86 28.46,21.56 31.37,18.26 31.18,14.69 31.00,11.12 28.68,8.56 26.37,6.01 23.38,4.87 20.40,3.73 17.92,3.49 15.45,3.26 13.16,2.82 Z" fill="#1d1d1d" stroke="#1d1d1d" stroke-width="2" pointer-events="none" stroke-linecap="round" stroke-linejoin="round"/></g><g id="9f1a9428-8521-4c98-1fcf-fe03ae8e415a_svg" class="tl-centered-g" transform="translate(206.50, 372.50) rotate(0.00, 16.50, 15.00)"><path d="M 12.85,29.18 Q 12.85,29.18 10.59,29.27 8.34,29.35 5.94,28.13 3.54,26.92 1.33,24.24 -0.87,21.56 -1.62,17.60 -2.36,13.65 -0.34,9.44 1.67,5.23 6.54,2.54 11.41,-0.15 17.50,0.15 23.59,0.46 28.23,3.93 32.87,7.40 33.90,12.49 34.93,17.58 32.23,21.90 29.52,26.22 24.82,28.28 20.12,30.34 15.52,30.13 10.92,29.92 7.67,28.27 4.43,26.62 2.93,24.56 1.43,22.49 1.43,22.48 1.44,22.48 1.44,22.48 1.44,22.47 3.33,23.76 5.21,25.05 8.16,26.33 11.11,27.61 15.21,27.88 19.31,28.15 23.52,26.46 27.72,24.77 30.20,21.15 32.67,17.53 31.92,13.25 31.16,8.96 27.19,5.92 23.21,2.87 17.82,2.51 12.43,2.15 8.15,4.39 3.86,6.64 2.11,10.06 0.36,13.49 0.94,16.64 1.52,19.79 3.38,21.95 5.24,24.10 7.18,25.38 9.13,26.65 10.99,27.91 Z" fill="#1d1d1d" stroke="#1d1d1d" stroke-width="2" pointer-events="none" stroke-linecap="round" stroke-linejoin="round"/></g><g id="8686a40a-b5b1-4374-26c5-9d23048bfc6b_svg" class="tl-centered-g" transform="translate(313.00, 40.00) rotate(0.00, 409.00, 13.00)"><path d="M 818.10,16.57 Q 818.10,16.57 818.17,18.37 818.24,20.17 816.39,22.58 814.55,24.99 807.74,25.69 800.94,26.38 793.24,26.50 785.53,26.62 777.55,26.64 769.57,26.66 761.51,26.66 753.45,26.66 745.38,26.66 737.30,26.65 729.22,26.64 721.14,26.64 713.06,26.63 704.98,26.62 696.90,26.61 688.82,26.60 680.74,26.59 672.65,26.59 664.57,26.58 656.49,26.57 648.41,26.56 640.33,26.55 632.24,26.54 624.16,26.53 616.08,26.53 608.00,26.52 599.92,26.51 591.84,26.50 583.75,26.49 575.67,26.48 567.59,26.47 559.51,26.47 551.43,26.46 543.34,26.45 535.26,26.44 527.18,26.43 519.10,26.42 511.02,26.42 502.94,26.41 494.85,26.40 486.77,26.39 478.69,26.38 470.61,26.37 462.53,26.36 454.44,26.36 446.36,26.35 438.28,26.34 430.20,26.33 422.12,26.32 414.04,26.31 405.95,26.33 397.87,26.35 389.79,26.37 381.71,26.38 373.63,26.40 365.54,26.42 357.46,26.44 349.38,26.45 341.30,26.47 333.22,26.49 325.14,26.51 317.05,26.52 308.97,26.54 300.89,26.56 292.81,26.58 284.73,26.59 276.64,26.61 268.56,26.63 260.48,26.65 252.40,26.66 244.32,26.68 236.24,26.70 228.15,26.72 220.07,26.73 211.99,26.75 203.91,26.77 195.83,26.79 187.74,26.80 179.66,26.82 171.58,26.84 163.50,26.86 155.42,26.87 147.34,26.89 139.25,26.91 131.17,26.93 123.09,26.94 115.01,26.96 106.93,26.98 98.84,27.00 90.76,27.01 82.68,27.03 74.60,27.05 66.52,27.07 58.44,27.08 50.35,27.10 42.27,27.12 34.19,27.14 26.11,27.15 18.00,27.17 9.89,27.18 6.00,25.59 2.10,24.00 0.97,22.46 -0.15,20.91 -0.39,19.46 -0.64,18.01 -0.60,16.77 -0.57,15.52 -0.57,14.36 -0.57,13.20 -0.66,12.05 -0.74,10.90 -0.82,9.76 -0.91,8.61 -0.94,7.35 -0.98,6.09 0.83,3.82 2.64,1.54 9.45,0.89 16.25,0.24 23.96,0.13 31.66,0.02 39.65,0.00 47.64,-0.01 55.70,-0.01 63.76,-0.01 71.85,-0.00 79.93,-0.00 88.01,0.00 96.10,0.01 104.19,0.02 112.28,0.02 120.36,0.03 128.45,0.04 136.54,0.05 144.63,0.05 152.72,0.06 160.80,0.07 168.89,0.08 176.98,0.08 185.07,0.09 193.16,0.10 201.24,0.11 209.33,0.12 217.42,0.12 225.51,0.13 233.60,0.14 241.69,0.15 249.77,0.15 257.86,0.16 265.95,0.17 274.04,0.18 282.13,0.19 290.21,0.19 298.30,0.20 306.39,0.21 314.48,0.22 322.57,0.22 330.65,0.23 338.74,0.24 346.83,0.25 354.92,0.26 363.01,0.26 371.10,0.27 379.18,0.28 387.27,0.29 395.36,0.29 403.45,0.30 411.54,0.28 419.62,0.27 427.71,0.25 435.80,0.23 443.89,0.21 451.98,0.19 460.06,0.17 468.15,0.16 476.24,0.14 484.33,0.12 492.42,0.10 500.50,0.08 508.59,0.06 516.68,0.05 524.77,0.03 532.86,0.01 540.95,-0.00 549.03,-0.02 557.12,-0.04 565.21,-0.05 573.30,-0.07 581.39,-0.09 589.47,-0.11 597.56,-0.13 605.65,-0.14 613.74,-0.16 621.83,-0.18 629.91,-0.20 638.00,-0.22 646.09,-0.24 654.18,-0.25 662.27,-0.27 670.35,-0.29 678.44,-0.31 686.53,-0.33 694.62,-0.35 702.71,-0.36 710.80,-0.38 718.88,-0.40 726.97,-0.42 735.06,-0.44 743.15,-0.46 751.24,-0.47 759.32,-0.49 767.41,-0.51 775.50,-0.53 783.59,-0.55 791.68,-0.56 799.79,-0.58 807.90,-0.59 811.80,0.99 815.71,2.58 816.81,4.15 817.91,5.71 818.11,7.17 818.31,8.63 818.22,9.88 818.14,11.12 818.10,12.29 818.06,13.46 818.10,14.62 818.13,15.78 818.15,17.32 818.17,18.87 818.12,19.10 818.07,19.33 817.95,19.54 817.83,19.74 817.65,19.89 817.47,20.05 817.25,20.14 817.03,20.23 816.79,20.24 816.56,20.25 816.33,20.19 816.10,20.13 815.90,20.00 815.71,19.87 815.56,19.68 815.42,19.49 815.34,19.27 815.26,19.04 815.26,18.80 815.26,18.57 815.34,18.34 815.41,18.12 815.55,17.93 815.69,17.74 815.89,17.61 816.09,17.47 816.31,17.41 816.54,17.34 816.78,17.35 817.01,17.37 817.24,17.45 817.46,17.54 817.64,17.69 817.82,17.84 817.94,18.05 818.06,18.25 818.12,18.48 818.17,18.71 818.14,18.95 818.12,19.18 818.02,19.40 817.92,19.61 817.76,19.79 817.60,19.96 817.39,20.07 817.18,20.18 816.95,20.22 816.72,20.26 816.48,20.22 816.25,20.19 816.04,20.08 815.83,19.97 815.66,19.80 815.50,19.63 815.40,19.41 815.30,19.20 815.27,18.96 815.24,18.73 815.24,18.73 815.24,18.73 815.41,17.19 815.58,15.66 815.73,14.52 815.87,13.38 815.91,12.26 815.95,11.13 815.71,9.19 815.46,7.26 814.84,6.35 814.21,5.45 811.01,4.06 807.80,2.68 799.74,2.68 791.68,2.67 783.59,2.67 775.50,2.66 767.41,2.65 759.33,2.64 751.24,2.63 743.15,2.63 735.06,2.62 726.97,2.61 718.89,2.60 710.80,2.60 702.71,2.59 694.62,2.58 686.53,2.57 678.44,2.56 670.36,2.56 662.27,2.55 654.18,2.54 646.09,2.53 638.00,2.53 629.92,2.52 621.83,2.51 613.74,2.50 605.65,2.50 597.56,2.49 589.48,2.48 581.39,2.47 573.30,2.46 565.21,2.46 557.12,2.45 549.03,2.44 540.95,2.43 532.86,2.43 524.77,2.42 516.68,2.41 508.59,2.40 500.51,2.39 492.42,2.39 484.33,2.38 476.24,2.37 468.15,2.36 460.07,2.36 451.98,2.35 443.89,2.34 435.80,2.33 427.71,2.32 419.63,2.32 411.54,2.31 403.45,2.30 395.36,2.32 387.27,2.34 379.18,2.36 371.10,2.37 363.01,2.39 354.92,2.41 346.83,2.43 338.74,2.45 330.66,2.47 322.57,2.48 314.48,2.50 306.39,2.52 298.30,2.54 290.22,2.56 282.13,2.58 274.04,2.59 265.95,2.61 257.86,2.63 249.78,2.65 241.69,2.67 233.60,2.69 225.51,2.70 217.42,2.72 209.33,2.74 201.25,2.76 193.16,2.78 185.07,2.79 176.98,2.81 168.89,2.83 160.81,2.85 152.72,2.87 144.63,2.89 136.54,2.90 128.45,2.92 120.37,2.94 112.28,2.96 104.19,2.98 96.10,3.00 88.02,3.01 79.93,3.03 71.85,3.05 63.77,3.07 55.71,3.10 47.65,3.13 39.68,3.17 31.71,3.22 24.10,3.35 16.49,3.48 10.48,3.75 4.47,4.02 3.30,5.31 2.13,6.60 2.07,7.62 2.01,8.64 1.91,9.78 1.80,10.92 1.70,12.05 1.60,13.19 1.61,14.31 1.61,15.43 1.93,17.37 2.26,19.30 2.92,20.21 3.58,21.12 6.79,22.51 9.99,23.90 18.05,23.90 26.11,23.91 34.19,23.92 42.27,23.92 50.35,23.93 58.43,23.94 66.52,23.95 74.60,23.96 82.68,23.97 90.76,23.97 98.84,23.98 106.92,23.99 115.01,24.00 123.09,24.01 131.17,24.02 139.25,24.03 147.33,24.03 155.42,24.04 163.50,24.05 171.58,24.06 179.66,24.07 187.74,24.08 195.82,24.08 203.91,24.09 211.99,24.10 220.07,24.11 228.15,24.12 236.23,24.13 244.32,24.14 252.40,24.14 260.48,24.15 268.56,24.16 276.64,24.17 284.73,24.18 292.81,24.19 300.89,24.19 308.97,24.20 317.05,24.21 325.13,24.22 333.22,24.23 341.30,24.24 349.38,24.25 357.46,24.25 365.54,24.26 373.63,24.27 381.71,24.28 389.79,24.29 397.87,24.30 405.95,24.31 414.03,24.31 422.12,24.30 430.20,24.28 438.28,24.26 446.36,24.24 454.44,24.23 462.53,24.21 470.61,24.19 478.69,24.17 486.77,24.16 494.85,24.14 502.93,24.12 511.02,24.10 519.10,24.09 527.18,24.07 535.26,24.05 543.34,24.03 551.43,24.02 559.51,24.00 567.59,23.98 575.67,23.96 583.75,23.95 591.83,23.93 599.92,23.91 608.00,23.89 616.08,23.88 624.16,23.86 632.24,23.84 640.33,23.82 648.41,23.81 656.49,23.79 664.57,23.77 672.65,23.75 680.73,23.74 688.82,23.72 696.90,23.70 704.98,23.68 713.06,23.67 721.14,23.65 729.22,23.63 737.30,23.61 745.38,23.59 753.45,23.57 761.50,23.55 769.55,23.52 777.52,23.47 785.48,23.42 793.09,23.28 800.69,23.14 806.70,22.85 812.71,22.55 813.89,21.11 815.07,19.67 815.31,18.05 815.54,16.44 815.57,16.29 815.60,16.14 815.66,16.00 815.72,15.85 815.81,15.73 815.91,15.61 816.03,15.51 816.15,15.42 816.29,15.35 816.43,15.29 816.58,15.26 816.73,15.23 816.88,15.24 817.04,15.24 817.19,15.29 817.33,15.33 817.47,15.41 817.60,15.49 817.71,15.60 817.82,15.70 817.90,15.84 817.98,15.97 818.03,16.11 818.08,16.26 818.09,16.41 Z" fill="#1d1d1d" stroke="#1d1d1d" stroke-width="2" pointer-events="none"/></g><g text-align="center" text-anchor="middle" transform="translate(318.00, 87.00) rotate(0.00, 81.00, 160.00)"><g id="65c05f27-8f07-4668-200e-fd28723e5439_svg" class="tl-centered-g"><path d="M 89.40,-0.44 Q 89.40,-0.44 95.66,-0.50 101.92,-0.56 109.78,-0.61 117.63,-0.67 125.90,-0.73 134.16,-0.78 142.56,-0.83 150.95,-0.89 155.11,0.97 159.27,2.84 160.42,9.62 161.58,16.41 161.80,24.21 162.03,32.02 162.07,40.07 162.11,48.13 162.10,56.25 162.10,64.38 162.08,72.52 162.07,80.66 162.05,88.81 162.03,96.96 162.01,105.10 161.99,113.25 161.97,121.40 161.95,129.55 161.93,137.70 161.91,145.84 161.92,153.99 161.94,162.14 161.99,170.29 162.04,178.44 162.08,186.58 162.13,194.73 162.18,202.88 162.23,211.03 162.28,219.18 162.33,227.33 162.38,235.47 162.42,243.62 162.47,251.77 162.52,259.92 162.57,268.07 162.62,276.21 162.67,284.36 162.72,292.51 162.76,300.68 162.80,308.86 160.94,312.96 159.07,317.07 152.05,318.18 145.03,319.29 136.95,319.48 128.86,319.67 120.50,319.68 112.14,319.69 103.71,319.66 95.28,319.62 86.83,319.65 78.37,319.68 69.92,319.77 61.46,319.87 53.00,319.97 44.54,320.06 36.09,320.16 27.63,320.25 19.14,320.34 10.66,320.44 6.48,318.57 2.29,316.71 1.14,309.92 0.00,303.12 -0.19,295.30 -0.39,287.48 -0.40,279.41 -0.42,271.33 -0.39,263.19 -0.36,255.05 -0.32,246.89 -0.27,238.72 -0.23,230.56 -0.18,222.39 -0.14,214.23 -0.09,206.06 -0.05,197.89 -0.00,189.73 0.03,181.56 0.08,173.39 0.09,165.22 0.10,157.06 0.08,148.89 0.06,140.72 0.03,132.56 0.01,124.39 -0.00,116.22 -0.02,108.05 -0.05,99.89 -0.07,91.72 -0.09,83.55 -0.12,75.39 -0.14,67.22 -0.16,59.05 -0.18,50.88 -0.21,42.72 -0.23,34.55 -0.25,26.38 -0.27,18.19 -0.29,10.00 1.58,5.89 3.45,1.77 10.43,0.69 17.41,-0.37 25.45,-0.53 33.49,-0.68 41.79,-0.65 50.10,-0.62 58.47,-0.55 66.85,-0.47 75.25,-0.46 83.65,-0.45 92.05,-0.50 100.45,-0.56 111.73,-0.61 123.01,-0.66 123.23,-0.63 123.45,-0.59 123.64,-0.49 123.84,-0.38 123.99,-0.22 124.14,-0.06 124.23,0.13 124.32,0.33 124.35,0.55 124.37,0.77 124.32,0.98 124.27,1.20 124.16,1.38 124.05,1.57 123.88,1.72 123.71,1.86 123.51,1.94 123.30,2.02 123.08,2.03 122.86,2.04 122.65,1.98 122.44,1.92 122.25,1.80 122.07,1.68 121.94,1.50 121.81,1.33 121.74,1.12 121.67,0.91 121.67,0.69 121.67,0.47 121.74,0.26 121.81,0.05 121.94,-0.12 122.08,-0.29 122.26,-0.41 122.44,-0.54 122.65,-0.59 122.87,-0.65 123.09,-0.64 123.31,-0.63 123.51,-0.55 123.71,-0.46 123.88,-0.32 124.05,-0.18 124.16,0.00 124.28,0.19 124.32,0.40 124.37,0.62 124.35,0.84 124.32,1.06 124.23,1.26 124.14,1.46 123.98,1.62 123.83,1.78 123.64,1.88 123.44,1.98 123.23,2.02 123.01,2.05 123.01,2.05 123.01,2.05 111.73,1.96 100.45,1.86 92.05,1.78 83.64,1.69 75.25,1.67 66.85,1.66 58.48,1.73 50.11,1.80 41.83,1.92 33.56,2.03 25.69,2.32 17.81,2.60 11.51,3.32 5.21,4.03 4.10,7.07 2.98,10.10 2.94,18.24 2.90,26.39 2.86,34.55 2.81,42.72 2.76,50.89 2.72,59.05 2.67,67.22 2.63,75.39 2.58,83.56 2.54,91.72 2.49,99.89 2.44,108.06 2.40,116.22 2.35,124.39 2.31,132.56 2.26,140.73 2.22,148.89 2.17,157.06 2.16,165.23 2.15,173.39 2.17,181.56 2.19,189.73 2.22,197.90 2.24,206.06 2.26,214.23 2.28,222.40 2.31,230.56 2.33,238.73 2.36,246.89 2.39,255.04 2.42,263.18 2.46,271.31 2.54,279.35 2.63,287.39 2.88,295.04 3.13,302.68 3.83,308.81 4.53,314.94 7.64,316.05 10.75,317.15 19.18,317.20 27.62,317.24 36.08,317.29 44.54,317.34 52.99,317.39 61.45,317.44 69.91,317.48 78.37,317.53 86.82,317.50 95.27,317.48 103.69,317.37 112.12,317.26 120.45,317.10 128.77,316.95 136.70,316.63 144.62,316.31 150.96,315.56 157.30,314.82 158.41,311.79 159.52,308.76 159.54,300.64 159.55,292.52 159.57,284.37 159.59,276.22 159.61,268.07 159.63,259.92 159.65,251.77 159.67,243.63 159.69,235.48 159.71,227.33 159.73,219.18 159.75,211.03 159.77,202.88 159.79,194.74 159.81,186.59 159.83,178.44 159.85,170.29 159.87,162.14 159.86,154.00 159.84,145.85 159.79,137.70 159.74,129.55 159.70,121.40 159.65,113.26 159.60,105.11 159.55,96.96 159.50,88.81 159.45,80.67 159.40,72.53 159.35,64.39 159.28,56.27 159.22,48.16 159.11,40.14 159.00,32.12 158.73,24.49 158.45,16.86 157.74,10.74 157.03,4.63 153.94,3.51 150.85,2.39 142.50,2.30 134.16,2.22 125.89,2.13 117.63,2.04 109.77,1.95 101.91,1.87 95.65,1.78 89.39,1.70 89.26,1.68 89.13,1.66 89.01,1.62 88.89,1.57 88.79,1.50 88.68,1.43 88.60,1.33 88.51,1.23 88.45,1.12 88.39,1.00 88.36,0.88 88.33,0.75 88.33,0.62 88.33,0.49 88.36,0.37 88.39,0.24 88.45,0.13 88.51,0.01 88.60,-0.07 88.68,-0.17 88.79,-0.24 88.90,-0.32 89.02,-0.36 89.14,-0.41 89.27,-0.42 Z" fill="#1d1d1d" stroke="#1d1d1d" stroke-width="2" pointer-events="none"/></g><g fill="#1d1d1d" transform-origin="top left" transform="translate(81, 141)"><text y="18.2" letter-spacing="-0.84" font-size="28px" font-family="Caveat Brush" text-align="left" alignment-baseline="central">extrato</text></g></g><g id="aec8746d-1129-4bfb-0bbf-ecea759756e8_svg" class="tl-centered-g" transform="translate(900.00, 82.50) rotate(0.00, 113.50, 161.50)"><path d="M 138.55,323.20 Q 138.55,323.20 132.34,323.18 126.12,323.15 118.33,323.18 110.53,323.22 102.33,323.30 94.13,323.38 85.82,323.47 77.52,323.55 69.19,323.63 60.86,323.72 52.52,323.80 44.19,323.88 35.85,323.97 27.51,324.05 19.15,324.13 10.78,324.21 6.63,322.35 2.47,320.49 1.31,313.65 0.16,306.80 -0.06,298.92 -0.28,291.03 -0.33,282.89 -0.37,274.75 -0.37,266.54 -0.37,258.33 -0.35,250.10 -0.34,241.87 -0.32,233.63 -0.31,225.40 -0.29,217.16 -0.28,208.92 -0.26,200.69 -0.24,192.45 -0.23,184.22 -0.21,175.98 -0.23,167.74 -0.24,159.51 -0.30,151.27 -0.35,143.03 -0.40,134.80 -0.45,126.56 -0.50,118.33 -0.55,110.09 -0.61,101.85 -0.66,93.62 -0.71,85.38 -0.76,77.14 -0.81,68.91 -0.86,60.67 -0.92,52.44 -0.97,44.20 -1.02,35.96 -1.07,27.73 -1.12,19.47 -1.16,11.21 0.69,7.08 2.55,2.95 9.51,1.80 16.48,0.65 24.51,0.43 32.54,0.21 40.83,0.16 49.12,0.12 57.49,0.12 65.86,0.12 74.24,0.13 82.63,0.14 91.02,0.16 99.41,0.17 107.80,0.14 116.19,0.10 124.58,0.02 132.98,-0.06 141.37,-0.14 149.76,-0.22 158.15,-0.31 166.54,-0.39 174.93,-0.48 183.33,-0.56 191.72,-0.65 200.11,-0.73 208.53,-0.81 216.94,-0.89 221.11,0.96 225.29,2.82 226.42,9.67 227.55,16.51 227.74,24.40 227.93,32.28 227.94,40.42 227.95,48.57 227.91,56.78 227.87,64.99 227.83,73.22 227.78,81.45 227.73,89.69 227.67,97.92 227.62,106.16 227.57,114.40 227.52,122.63 227.46,130.87 227.41,139.11 227.36,147.34 227.34,155.58 227.32,163.82 227.34,172.05 227.35,180.29 227.37,188.53 227.38,196.76 227.40,205.00 227.41,213.24 227.43,221.47 227.44,229.71 227.46,237.95 227.48,246.19 227.49,254.42 227.51,262.66 227.52,270.90 227.54,279.13 227.55,287.37 227.57,295.61 227.58,303.87 227.59,312.13 225.72,316.26 223.85,320.38 216.92,321.53 209.99,322.67 202.01,322.90 194.03,323.12 185.79,323.16 177.55,323.20 169.23,323.20 160.92,323.20 152.59,323.19 144.25,323.18 135.92,323.16 127.58,323.15 119.24,323.18 110.90,323.21 102.56,323.30 94.22,323.38 83.03,323.48 71.84,323.57 71.64,323.54 71.44,323.51 71.26,323.41 71.08,323.32 70.94,323.17 70.80,323.03 70.71,322.84 70.63,322.66 70.61,322.46 70.58,322.26 70.63,322.06 70.67,321.86 70.77,321.69 70.88,321.52 71.03,321.38 71.18,321.25 71.37,321.18 71.56,321.10 71.76,321.09 71.96,321.08 72.16,321.13 72.35,321.19 72.52,321.30 72.69,321.41 72.81,321.57 72.93,321.73 73.00,321.92 73.06,322.11 73.06,322.32 73.07,322.52 73.00,322.71 72.94,322.90 72.82,323.06 72.69,323.23 72.53,323.34 72.36,323.45 72.17,323.51 71.97,323.56 71.77,323.55 71.57,323.54 71.38,323.47 71.19,323.40 71.04,323.26 70.88,323.13 70.78,322.96 70.67,322.79 70.63,322.59 70.58,322.39 70.60,322.19 70.63,321.99 70.71,321.81 70.79,321.62 70.93,321.48 71.07,321.33 71.25,321.23 71.43,321.14 71.63,321.11 71.83,321.07 71.83,321.07 71.83,321.07 83.02,321.08 94.21,321.08 102.55,321.10 110.89,321.11 119.23,321.08 127.57,321.05 135.91,320.96 144.24,320.88 152.57,320.79 160.91,320.70 169.21,320.60 177.52,320.50 185.73,320.36 193.94,320.22 201.75,319.91 209.56,319.61 215.81,318.87 222.07,318.14 223.19,315.08 224.31,312.03 224.36,303.81 224.41,295.60 224.46,287.36 224.51,279.13 224.56,270.89 224.62,262.65 224.67,254.42 224.72,246.18 224.78,237.94 224.83,229.71 224.88,221.47 224.93,213.23 224.99,205.00 225.04,196.76 225.09,188.52 225.15,180.29 225.20,172.05 225.25,163.81 225.27,155.57 225.29,147.34 225.27,139.10 225.26,130.86 225.24,122.63 225.23,114.39 225.21,106.15 225.19,97.92 225.18,89.68 225.16,81.45 225.14,73.22 225.12,64.99 225.09,56.79 225.06,48.58 224.98,40.47 224.91,32.37 224.66,24.66 224.42,16.95 223.73,10.76 223.03,4.58 219.95,3.48 216.86,2.38 208.49,2.37 200.12,2.36 191.73,2.34 183.34,2.33 174.95,2.31 166.55,2.30 158.16,2.28 149.77,2.27 141.38,2.25 132.99,2.23 124.59,2.22 116.20,2.20 107.81,2.24 99.42,2.27 91.03,2.36 82.64,2.44 74.26,2.53 65.87,2.62 57.51,2.72 49.15,2.82 40.89,2.96 32.63,3.11 24.77,3.41 16.92,3.72 10.62,4.46 4.33,5.19 3.22,8.25 2.11,11.30 2.09,19.51 2.08,27.72 2.07,35.96 2.05,44.19 2.03,52.43 2.02,60.67 2.00,68.90 1.98,77.14 1.97,85.38 1.95,93.61 1.93,101.85 1.91,110.08 1.90,118.32 1.88,126.56 1.86,134.79 1.85,143.03 1.83,151.27 1.81,159.50 1.83,167.74 1.85,175.97 1.90,184.21 1.95,192.45 2.00,200.68 2.06,208.92 2.11,217.15 2.16,225.39 2.21,233.62 2.27,241.86 2.32,250.09 2.38,258.31 2.44,266.52 2.51,274.72 2.62,282.83 2.73,290.93 3.01,298.64 3.29,306.35 4.00,312.53 4.72,318.72 7.79,319.82 10.87,320.93 19.18,320.94 27.50,320.95 35.84,320.97 44.18,320.98 52.51,321.00 60.85,321.02 69.18,321.03 77.51,321.05 85.82,321.07 94.12,321.08 102.32,321.10 110.52,321.12 118.32,321.08 126.12,321.05 132.33,320.98 138.54,320.90 138.68,320.92 138.82,320.93 138.95,320.98 139.08,321.03 139.19,321.11 139.30,321.19 139.40,321.29 139.49,321.40 139.55,321.52 139.62,321.64 139.65,321.78 139.69,321.91 139.69,322.05 139.69,322.19 139.66,322.32 139.62,322.46 139.56,322.58 139.49,322.70 139.40,322.81 139.31,322.91 139.20,322.99 139.08,323.07 138.95,323.12 138.83,323.17 138.69,323.19 Z" fill="#1d1d1d" stroke="#1d1d1d" stroke-width="2" pointer-events="none"/></g><g id="2272f98c-e60b-49fd-1c8e-8ed176f67f4c_svg" class="tl-centered-g" transform="translate(917.00, 102.50) rotate(0.00, 93.50, 26.50)"><path d="M 93.52,0.16 Q 93.52,0.16 100.13,0.07 106.74,-0.01 115.04,-0.11 123.33,-0.21 132.06,-0.31 140.79,-0.41 149.62,-0.51 158.46,-0.61 167.34,-0.70 176.23,-0.80 180.43,0.90 184.63,2.61 185.78,5.64 186.93,8.68 187.09,11.85 187.24,15.02 187.17,18.11 187.11,21.21 187.08,24.29 187.06,27.38 187.12,30.46 187.18,33.55 187.23,36.63 187.29,39.72 187.32,42.87 187.35,46.03 185.50,48.82 183.65,51.61 176.31,52.33 168.98,53.06 160.59,53.12 152.20,53.18 143.50,53.12 134.80,53.07 126.02,52.99 117.24,52.91 108.43,52.82 99.63,52.73 90.82,52.77 82.01,52.81 73.20,52.85 64.39,52.88 55.58,52.92 46.76,52.96 37.95,53.00 29.14,53.04 20.31,53.07 11.47,53.11 7.30,51.40 3.13,49.70 1.91,46.72 0.70,43.75 0.46,40.66 0.22,37.58 0.19,34.56 0.17,31.55 0.11,28.55 0.04,25.56 -0.09,22.56 -0.24,19.57 -0.38,16.57 -0.53,13.58 -0.65,10.51 -0.77,7.43 1.05,4.65 2.87,1.87 10.25,1.11 17.62,0.34 26.07,0.23 34.51,0.11 43.27,0.10 52.03,0.09 60.87,0.11 69.72,0.13 78.59,0.16 87.45,0.19 96.32,0.09 105.19,-0.00 117.10,-0.12 129.01,-0.23 129.22,-0.20 129.42,-0.16 129.60,-0.07 129.78,0.02 129.92,0.16 130.06,0.31 130.15,0.50 130.23,0.68 130.25,0.88 130.28,1.08 130.23,1.28 130.19,1.48 130.09,1.66 129.98,1.83 129.83,1.97 129.67,2.10 129.48,2.17 129.29,2.25 129.09,2.26 128.89,2.27 128.69,2.22 128.49,2.17 128.33,2.05 128.16,1.94 128.03,1.78 127.91,1.62 127.84,1.42 127.78,1.23 127.78,1.03 127.77,0.82 127.84,0.63 127.90,0.44 128.03,0.27 128.15,0.11 128.32,0.00 128.49,-0.11 128.68,-0.17 128.88,-0.22 129.08,-0.21 129.29,-0.20 129.47,-0.13 129.66,-0.05 129.82,0.07 129.98,0.20 130.08,0.38 130.19,0.55 130.23,0.75 130.28,0.95 130.26,1.15 130.23,1.35 130.15,1.54 130.06,1.72 129.92,1.87 129.79,2.02 129.61,2.12 129.43,2.21 129.22,2.25 129.02,2.28 129.02,2.28 129.02,2.28 117.11,2.26 105.20,2.25 96.33,2.22 87.46,2.19 78.60,2.29 69.73,2.39 60.89,2.50 52.05,2.61 43.31,2.75 34.57,2.89 26.23,3.13 17.88,3.37 11.29,3.81 4.69,4.25 3.56,5.97 2.43,7.70 2.41,10.62 2.39,13.53 2.35,16.53 2.31,19.52 2.27,22.52 2.23,25.51 2.29,28.49 2.36,31.47 2.56,34.40 2.76,37.32 3.10,40.03 3.44,42.74 4.20,44.99 4.96,47.25 8.27,48.53 11.57,49.82 20.36,49.91 29.15,50.00 37.96,50.09 46.77,50.18 55.58,50.27 64.39,50.36 73.21,50.46 82.02,50.55 90.83,50.64 99.63,50.73 108.44,50.69 117.24,50.65 126.02,50.60 134.80,50.55 143.48,50.47 152.16,50.40 160.45,50.21 168.73,50.03 175.29,49.63 181.85,49.23 182.99,47.47 184.14,45.71 184.25,42.69 184.36,39.68 184.49,36.60 184.62,33.52 184.75,30.44 184.87,27.36 184.90,24.29 184.92,21.23 184.80,18.21 184.69,15.19 184.42,12.40 184.16,9.61 183.46,7.30 182.75,4.98 179.45,3.73 176.15,2.48 167.31,2.45 158.47,2.42 149.63,2.39 140.80,2.36 132.07,2.33 123.34,2.30 115.05,2.27 106.75,2.24 100.14,2.20 93.53,2.16 93.41,2.15 93.29,2.13 93.18,2.09 93.06,2.05 92.96,1.98 92.87,1.91 92.78,1.82 92.70,1.73 92.65,1.63 92.59,1.52 92.56,1.40 92.53,1.29 92.53,1.17 92.53,1.05 92.56,0.93 92.59,0.81 92.64,0.71 92.70,0.60 92.78,0.51 92.86,0.42 92.96,0.35 93.06,0.28 93.17,0.24 93.28,0.19 93.40,0.18 Z" fill="#1d1d1d" stroke="#1d1d1d" stroke-width="2" pointer-events="none"/></g><g id="4a02722c-f4a4-4b00-10e2-2cd25c4b3186_svg" class="tl-centered-g" transform="translate(919.00, 172.50) rotate(0.00, 95.50, 26.50)"><path d="M 95.91,53.09 Q 95.91,53.09 89.16,53.16 82.41,53.23 73.94,53.30 65.47,53.37 56.56,53.44 47.65,53.51 38.63,53.58 29.61,53.65 20.54,53.71 11.47,53.78 7.23,52.07 2.99,50.37 1.77,47.30 0.56,44.24 0.33,41.04 0.11,37.83 0.11,34.70 0.10,31.56 0.06,28.44 0.01,25.31 -0.11,22.19 -0.23,19.07 -0.36,15.95 -0.48,12.83 -0.58,9.63 -0.69,6.43 1.14,3.62 2.98,0.81 10.50,0.09 18.02,-0.62 26.63,-0.68 35.25,-0.73 44.20,-0.67 53.15,-0.61 62.18,-0.52 71.21,-0.43 80.26,-0.34 89.32,-0.24 98.38,-0.27 107.44,-0.30 116.50,-0.33 125.56,-0.36 134.63,-0.39 143.69,-0.43 152.75,-0.46 161.81,-0.49 170.90,-0.51 179.98,-0.54 184.22,1.16 188.45,2.87 189.67,5.90 190.89,8.93 191.11,12.08 191.33,15.23 191.33,18.32 191.32,21.40 191.37,24.47 191.41,27.53 191.53,30.60 191.65,33.67 191.77,36.73 191.89,39.80 191.99,42.94 192.09,46.08 190.25,48.88 188.41,51.68 180.90,52.42 173.38,53.17 164.77,53.26 156.15,53.35 147.21,53.32 138.27,53.30 129.24,53.25 120.21,53.20 111.16,53.14 102.10,53.09 93.05,53.16 83.99,53.23 71.83,53.30 59.67,53.37 59.47,53.34 59.27,53.31 59.09,53.21 58.91,53.11 58.77,52.97 58.63,52.82 58.54,52.63 58.46,52.45 58.43,52.25 58.41,52.04 58.46,51.84 58.50,51.65 58.60,51.47 58.71,51.30 58.86,51.16 59.02,51.03 59.21,50.96 59.40,50.88 59.60,50.87 59.81,50.86 60.00,50.91 60.20,50.97 60.37,51.08 60.54,51.20 60.66,51.36 60.78,51.52 60.85,51.71 60.91,51.91 60.91,52.11 60.91,52.31 60.85,52.51 60.78,52.70 60.66,52.86 60.54,53.03 60.37,53.14 60.20,53.25 60.00,53.31 59.81,53.36 59.60,53.35 59.40,53.34 59.21,53.27 59.02,53.19 58.87,53.06 58.71,52.93 58.61,52.75 58.50,52.58 58.46,52.38 58.41,52.18 58.43,51.98 58.46,51.77 58.54,51.59 58.63,51.40 58.77,51.26 58.91,51.11 59.09,51.01 59.27,50.92 59.47,50.88 59.67,50.85 59.67,50.85 59.67,50.85 71.83,50.91 83.99,50.97 93.05,51.03 102.10,51.09 111.15,51.01 120.20,50.94 129.23,50.86 138.25,50.78 147.18,50.67 156.10,50.57 164.62,50.35 173.14,50.14 179.88,49.72 186.62,49.30 187.75,47.55 188.88,45.80 188.92,42.81 188.96,39.82 189.03,36.76 189.10,33.69 189.16,30.63 189.22,27.56 189.18,24.51 189.14,21.46 188.96,18.46 188.78,15.47 188.46,12.69 188.14,9.92 187.38,7.61 186.62,5.30 183.25,4.02 179.89,2.73 170.84,2.64 161.80,2.54 152.74,2.44 143.68,2.34 134.62,2.25 125.55,2.15 116.49,2.05 107.43,1.95 98.37,1.85 89.31,1.75 80.26,1.78 71.20,1.82 62.18,1.86 53.15,1.90 44.22,1.97 35.29,2.04 26.77,2.22 18.25,2.40 11.51,2.79 4.77,3.19 3.64,4.95 2.52,6.70 2.48,9.75 2.44,12.80 2.37,15.92 2.31,19.04 2.25,22.16 2.20,25.28 2.24,28.39 2.29,31.49 2.47,34.55 2.66,37.60 2.98,40.43 3.31,43.26 4.07,45.60 4.84,47.95 8.19,49.22 11.55,50.50 20.58,50.55 29.61,50.61 38.63,50.67 47.65,50.73 56.56,50.79 65.47,50.85 73.94,50.91 82.41,50.97 89.16,51.03 95.91,51.09 96.03,51.11 96.15,51.12 96.26,51.16 96.37,51.21 96.47,51.27 96.57,51.34 96.65,51.43 96.73,51.52 96.79,51.63 96.84,51.74 96.87,51.85 96.90,51.97 96.90,52.09 96.90,52.21 96.87,52.33 96.84,52.45 96.79,52.55 96.73,52.66 96.65,52.75 96.57,52.84 96.47,52.91 96.37,52.98 96.26,53.02 96.15,53.06 96.03,53.08 Z" fill="#1d1d1d" stroke="#1d1d1d" stroke-width="2" pointer-events="none"/></g><g id="94b8fa2b-a6c7-4ea8-0911-826be202e5e7_svg" class="tl-centered-g" transform="translate(923.00, 245.50) rotate(0.00, 91.00, 25.00)"><path d="M 0.23,16.30 Q 0.23,16.30 0.18,14.21 0.13,12.12 0.12,9.42 0.10,6.72 1.95,4.05 3.81,1.39 10.98,0.70 18.15,0.01 26.32,-0.04 34.49,-0.10 42.96,-0.04 51.43,0.00 59.98,0.08 68.54,0.16 77.11,0.24 85.68,0.33 94.26,0.29 102.84,0.24 111.42,0.20 120.00,0.16 128.58,0.12 137.16,0.08 145.74,0.03 154.32,-0.00 162.93,-0.03 171.53,-0.07 175.64,1.62 179.75,3.32 180.94,6.17 182.12,9.02 182.33,11.96 182.55,14.90 182.54,17.75 182.54,20.60 182.58,23.44 182.62,26.27 182.74,29.10 182.86,31.93 182.98,34.76 183.10,37.60 183.19,40.51 183.29,43.42 181.45,46.15 179.62,48.89 172.41,49.58 165.21,50.28 156.98,50.32 148.76,50.36 140.23,50.29 131.70,50.22 123.09,50.13 114.48,50.03 105.85,49.92 97.22,49.82 88.58,49.84 79.94,49.87 71.30,49.89 62.66,49.92 54.02,49.94 45.38,49.96 36.74,49.99 28.10,50.01 19.44,50.03 10.78,50.05 6.65,48.33 2.52,46.62 1.39,43.78 0.27,40.95 0.14,38.03 0.00,35.11 0.09,32.28 0.18,29.46 0.22,26.65 0.27,23.84 0.23,21.03 0.19,18.22 0.18,14.46 0.16,10.69 0.20,10.46 0.25,10.22 0.36,10.02 0.48,9.81 0.65,9.65 0.83,9.49 1.04,9.40 1.26,9.30 1.50,9.28 1.73,9.26 1.96,9.32 2.19,9.37 2.39,9.50 2.59,9.62 2.74,9.81 2.89,9.99 2.98,10.21 3.06,10.44 3.07,10.67 3.08,10.91 3.01,11.14 2.94,11.36 2.80,11.56 2.67,11.75 2.47,11.89 2.28,12.03 2.06,12.10 1.83,12.17 1.59,12.16 1.36,12.16 1.13,12.08 0.91,12.00 0.73,11.85 0.54,11.70 0.41,11.51 0.28,11.31 0.22,11.08 0.17,10.85 0.18,10.61 0.20,10.38 0.29,10.16 0.39,9.94 0.54,9.76 0.70,9.58 0.90,9.47 1.11,9.35 1.34,9.30 1.58,9.26 1.81,9.29 2.04,9.32 2.26,9.42 2.47,9.53 2.64,9.69 2.81,9.86 2.91,10.07 3.02,10.28 3.05,10.52 3.09,10.75 3.09,10.75 3.09,10.75 2.92,14.51 2.75,18.27 2.60,21.07 2.45,23.87 2.41,26.66 2.37,29.45 2.46,32.19 2.56,34.94 2.79,37.46 3.03,39.98 3.70,42.09 4.37,44.20 7.63,45.48 10.88,46.77 19.50,46.87 28.12,46.97 36.76,47.08 45.40,47.18 54.03,47.29 62.67,47.40 71.31,47.50 79.95,47.61 88.59,47.71 97.22,47.82 105.86,47.79 114.49,47.77 123.09,47.74 131.70,47.70 140.21,47.64 148.72,47.58 156.85,47.41 164.97,47.25 171.40,46.87 177.82,46.50 178.95,44.81 180.09,43.12 180.13,40.37 180.17,37.62 180.24,34.79 180.31,31.96 180.37,29.13 180.43,26.30 180.39,23.49 180.35,20.67 180.18,17.91 180.00,15.14 179.69,12.59 179.38,10.04 178.65,7.91 177.93,5.78 174.68,4.49 171.43,3.20 162.87,3.12 154.32,3.03 145.74,2.94 137.15,2.86 128.57,2.77 119.99,2.68 111.41,2.59 102.83,2.50 94.26,2.42 85.68,2.33 77.10,2.37 68.53,2.42 59.98,2.47 51.43,2.52 42.98,2.60 34.53,2.67 26.45,2.86 18.38,3.04 12.00,3.41 5.62,3.79 4.46,5.44 3.30,7.09 3.18,9.64 3.06,12.18 2.92,14.27 2.78,16.36 2.76,16.51 2.74,16.66 2.68,16.80 2.63,16.95 2.54,17.07 2.45,17.20 2.33,17.30 2.21,17.40 2.07,17.47 1.93,17.53 1.78,17.57 1.63,17.60 1.48,17.60 1.33,17.60 1.18,17.56 1.03,17.52 0.89,17.44 0.76,17.37 0.64,17.26 0.53,17.16 0.45,17.03 0.36,16.90 0.31,16.75 0.26,16.61 0.24,16.46 Z" fill="#1d1d1d" stroke="#1d1d1d" stroke-width="2" pointer-events="none"/></g><g id="5fc953ba-c73d-4f0a-3e5c-b7d8412e4f51_svg" class="tl-centered-g" transform="translate(927.00, 327.50) rotate(0.00, 91.50, 26.00)"><path d="M -0.57,16.58 Q -0.57,16.58 -0.74,14.30 -0.91,12.02 -1.07,9.07 -1.23,6.12 0.58,3.36 2.39,0.61 9.63,-0.09 16.87,-0.80 25.14,-0.86 33.42,-0.91 42.00,-0.86 50.58,-0.80 59.25,-0.72 67.91,-0.64 76.59,-0.55 85.28,-0.46 93.97,-0.49 102.66,-0.53 111.36,-0.57 120.05,-0.61 128.74,-0.65 137.43,-0.68 146.13,-0.72 154.82,-0.76 163.54,-0.79 172.25,-0.82 176.40,0.88 180.55,2.60 181.71,5.63 182.88,8.65 183.05,11.80 183.23,14.95 183.20,18.02 183.16,21.10 183.17,24.16 183.17,27.23 183.26,30.29 183.35,33.35 183.44,36.41 183.52,39.48 183.58,42.61 183.65,45.75 181.80,48.54 179.96,51.33 172.77,52.05 165.58,52.77 157.38,52.84 149.17,52.90 140.66,52.85 132.15,52.79 123.57,52.71 114.98,52.63 106.37,52.55 97.76,52.46 89.14,52.50 80.53,52.54 71.91,52.58 63.29,52.62 54.68,52.66 46.06,52.70 37.44,52.74 28.83,52.78 20.19,52.82 11.55,52.86 7.43,51.15 3.31,49.45 2.06,46.43 0.82,43.40 0.54,40.25 0.25,37.11 0.18,34.02 0.11,30.94 0.00,27.87 -0.11,24.81 -0.30,21.74 -0.50,18.68 -0.73,14.57 -0.96,10.46 -0.93,10.22 -0.90,9.99 -0.79,9.77 -0.69,9.56 -0.52,9.39 -0.36,9.22 -0.15,9.12 0.06,9.01 0.29,8.98 0.53,8.94 0.76,8.99 0.99,9.03 1.20,9.15 1.40,9.26 1.56,9.44 1.72,9.61 1.82,9.83 1.91,10.05 1.93,10.28 1.95,10.52 1.90,10.75 1.84,10.98 1.72,11.18 1.59,11.38 1.41,11.53 1.22,11.68 1.00,11.76 0.78,11.85 0.54,11.85 0.31,11.86 0.08,11.79 -0.14,11.72 -0.33,11.59 -0.53,11.45 -0.66,11.26 -0.80,11.07 -0.87,10.84 -0.95,10.61 -0.94,10.38 -0.94,10.14 -0.85,9.92 -0.77,9.70 -0.63,9.51 -0.48,9.32 -0.28,9.20 -0.08,9.07 0.14,9.01 0.37,8.95 0.60,8.97 0.84,8.99 1.06,9.08 1.28,9.17 1.45,9.33 1.63,9.48 1.75,9.69 1.87,9.90 1.91,10.13 1.96,10.36 1.96,10.36 1.96,10.36 2.00,14.48 2.04,18.59 2.06,21.66 2.07,24.72 2.18,27.78 2.30,30.83 2.55,33.82 2.80,36.82 3.18,39.60 3.56,42.38 4.35,44.69 5.14,46.99 8.39,48.28 11.65,49.57 20.24,49.66 28.83,49.74 37.45,49.83 46.07,49.92 54.68,50.01 63.30,50.10 71.92,50.19 80.53,50.28 89.15,50.37 97.76,50.46 106.37,50.42 114.98,50.37 123.57,50.32 132.15,50.27 140.64,50.20 149.13,50.12 157.23,49.93 165.33,49.74 171.74,49.35 178.16,48.95 179.29,47.20 180.43,45.44 180.51,42.46 180.59,39.47 180.69,36.41 180.79,33.35 180.89,30.29 180.99,27.23 180.98,24.18 180.97,21.14 180.83,18.14 180.68,15.15 180.40,12.37 180.11,9.60 179.39,7.30 178.68,5.00 175.42,3.72 172.15,2.45 163.48,2.36 154.81,2.27 146.12,2.18 137.43,2.09 128.73,1.99 120.04,1.90 111.35,1.81 102.66,1.72 93.96,1.63 85.27,1.53 76.59,1.57 67.90,1.61 59.24,1.66 50.58,1.71 42.02,1.78 33.46,1.86 25.28,2.04 17.11,2.22 10.65,2.61 4.19,2.99 3.07,4.68 1.96,6.36 1.98,9.14 2.01,11.92 1.99,14.21 1.97,16.50 1.96,16.65 1.95,16.81 1.90,16.95 1.85,17.10 1.76,17.23 1.68,17.36 1.57,17.46 1.46,17.57 1.32,17.64 1.19,17.72 1.04,17.76 0.89,17.80 0.74,17.81 0.58,17.81 0.43,17.78 0.28,17.75 0.14,17.68 0.00,17.62 -0.11,17.52 -0.22,17.42 -0.32,17.29 -0.41,17.17 -0.47,17.03 -0.53,16.89 -0.55,16.73 Z" fill="#1d1d1d" stroke="#1d1d1d" stroke-width="2" pointer-events="none"/></g><g text-align="center" text-anchor="middle" transform="translate(503.00, 92.50) rotate(0.00, 186.50, 72.00)"><g id="85bc6259-b7fb-430d-3279-3f56b488b5c4_svg" class="tl-centered-g"><path d="M 87.16,-0.86 Q 87.16,-0.86 93.33,-0.83 99.49,-0.81 107.23,-0.78 114.96,-0.76 123.10,-0.73 131.24,-0.71 139.48,-0.68 147.72,-0.66 155.98,-0.63 164.25,-0.61 172.52,-0.58 180.79,-0.56 189.06,-0.59 197.34,-0.62 205.61,-0.66 213.89,-0.69 222.16,-0.73 230.43,-0.76 238.71,-0.79 246.98,-0.83 255.26,-0.86 263.53,-0.90 271.80,-0.93 280.08,-0.96 288.35,-1.00 296.63,-1.03 304.90,-1.06 313.17,-1.10 321.45,-1.13 329.72,-1.17 338.00,-1.20 346.27,-1.23 354.57,-1.26 362.87,-1.29 367.01,0.57 371.16,2.45 372.19,9.42 373.22,16.40 373.32,24.43 373.41,32.47 373.31,40.77 373.22,49.07 373.08,57.44 372.95,65.81 372.96,74.21 372.97,82.60 372.98,91.00 372.99,99.40 373.00,107.80 373.01,116.20 373.02,124.63 373.02,133.05 371.14,137.21 369.26,141.38 362.40,142.53 355.54,143.69 347.64,143.90 339.75,144.12 331.60,144.15 323.45,144.19 315.23,144.18 307.02,144.17 298.78,144.14 290.54,144.12 282.30,144.09 274.06,144.07 265.82,144.04 257.57,144.02 249.33,143.99 241.09,143.96 232.84,143.94 224.60,143.91 216.36,143.88 208.12,143.86 199.87,143.83 191.63,143.80 183.39,143.83 175.14,143.87 166.90,143.90 158.66,143.93 150.41,143.96 142.17,144.00 133.93,144.03 125.69,144.06 117.44,144.09 109.20,144.13 100.96,144.16 92.71,144.19 84.47,144.22 76.23,144.25 67.98,144.29 59.74,144.32 51.50,144.35 43.26,144.38 35.01,144.42 26.77,144.45 18.50,144.48 10.24,144.50 6.10,142.64 1.97,140.77 0.87,133.79 -0.22,126.82 -0.39,118.79 -0.56,110.76 -0.55,102.47 -0.54,94.17 -0.49,85.80 -0.44,77.43 -0.54,69.04 -0.64,60.65 -0.73,52.25 -0.83,43.86 -0.92,35.46 -1.02,27.07 -1.11,18.65 -1.20,10.23 0.65,6.06 2.52,1.89 9.39,0.73 16.27,-0.41 24.19,-0.63 32.11,-0.85 40.29,-0.88 48.47,-0.92 56.72,-0.91 64.97,-0.90 73.24,-0.88 81.50,-0.86 89.78,-0.83 98.05,-0.81 106.32,-0.78 114.60,-0.76 122.87,-0.73 131.14,-0.71 139.42,-0.68 147.69,-0.66 155.97,-0.63 164.24,-0.61 172.51,-0.58 180.79,-0.56 189.06,-0.59 197.34,-0.62 208.44,-0.66 219.55,-0.69 219.73,-0.67 219.91,-0.64 220.07,-0.55 220.23,-0.47 220.35,-0.34 220.47,-0.20 220.55,-0.04 220.63,0.11 220.65,0.29 220.67,0.47 220.63,0.65 220.59,0.83 220.50,0.98 220.40,1.14 220.26,1.25 220.13,1.37 219.96,1.44 219.79,1.51 219.61,1.52 219.43,1.53 219.26,1.48 219.08,1.43 218.93,1.33 218.78,1.23 218.67,1.08 218.56,0.94 218.50,0.77 218.45,0.59 218.45,0.41 218.45,0.23 218.50,0.06 218.56,-0.10 218.67,-0.24 218.78,-0.39 218.93,-0.49 219.08,-0.59 219.25,-0.64 219.43,-0.69 219.61,-0.68 219.79,-0.67 219.96,-0.60 220.13,-0.53 220.26,-0.42 220.40,-0.30 220.50,-0.15 220.59,0.00 220.63,0.18 220.67,0.35 220.65,0.53 220.63,0.71 220.55,0.88 220.48,1.04 220.35,1.17 220.23,1.30 220.07,1.39 219.91,1.47 219.73,1.50 219.55,1.53 219.55,1.53 219.55,1.53 208.44,1.51 197.34,1.48 189.06,1.46 180.79,1.43 172.52,1.47 164.24,1.50 155.97,1.54 147.69,1.57 139.42,1.60 131.14,1.64 122.87,1.67 114.60,1.71 106.32,1.74 98.05,1.77 89.78,1.81 81.51,1.84 73.24,1.88 64.97,1.92 56.73,1.97 48.49,2.02 40.35,2.11 32.20,2.20 24.46,2.47 16.71,2.73 10.50,3.43 4.29,4.14 3.18,7.23 2.07,10.32 2.01,18.69 1.95,27.06 1.88,35.46 1.81,43.86 1.75,52.25 1.68,60.64 1.61,69.03 1.55,77.42 1.66,85.78 1.77,94.15 1.92,102.41 2.08,110.68 2.40,118.55 2.72,126.41 3.47,132.70 4.23,139.00 7.28,140.11 10.33,141.22 18.55,141.24 26.77,141.27 35.01,141.29 43.25,141.32 51.50,141.35 59.74,141.37 67.98,141.40 76.23,141.43 84.47,141.45 92.71,141.48 100.96,141.51 109.20,141.53 117.44,141.56 125.68,141.59 133.93,141.61 142.17,141.64 150.41,141.67 158.66,141.69 166.90,141.72 175.14,141.75 183.39,141.77 191.63,141.80 199.87,141.77 208.12,141.74 216.36,141.70 224.60,141.67 232.84,141.64 241.09,141.61 249.33,141.58 257.57,141.54 265.82,141.51 274.06,141.48 282.30,141.44 290.54,141.41 298.77,141.37 307.01,141.34 315.22,141.29 323.43,141.24 331.54,141.15 339.66,141.06 347.37,140.80 355.09,140.54 361.28,139.83 367.47,139.13 368.61,136.03 369.74,132.93 369.89,124.55 370.04,116.18 370.19,107.78 370.34,99.38 370.50,90.98 370.65,82.58 370.80,74.19 370.95,65.80 370.92,57.43 370.90,49.06 370.83,40.79 370.76,32.52 370.52,24.65 370.27,16.78 369.58,10.48 368.88,4.18 365.83,3.08 362.77,1.98 354.52,1.96 346.27,1.94 338.00,1.91 329.72,1.89 321.45,1.86 313.18,1.84 304.90,1.81 296.63,1.79 288.35,1.76 280.08,1.74 271.81,1.71 263.53,1.69 255.26,1.66 246.98,1.64 238.71,1.61 230.43,1.58 222.16,1.56 213.89,1.53 205.61,1.51 197.34,1.48 189.06,1.46 180.79,1.43 172.52,1.47 164.25,1.50 155.98,1.54 147.72,1.57 139.48,1.60 131.24,1.64 123.10,1.67 114.96,1.70 107.23,1.74 99.49,1.77 93.33,1.81 87.16,1.84 87.00,1.82 86.84,1.80 86.69,1.74 86.53,1.68 86.40,1.59 86.27,1.50 86.16,1.38 86.05,1.25 85.97,1.11 85.90,0.96 85.86,0.81 85.82,0.65 85.82,0.48 85.82,0.32 85.86,0.16 85.90,0.00 85.97,-0.13 86.05,-0.28 86.16,-0.40 86.26,-0.52 86.40,-0.61 86.53,-0.71 86.69,-0.76 86.84,-0.82 87.00,-0.84 Z" fill="#1d1d1d" stroke="#1d1d1d" stroke-width="2" pointer-events="none"/></g><g fill="#1d1d1d" transform-origin="top left" transform="translate(186.5, 53)"><text y="18.2" letter-spacing="-0.84" font-size="28px" font-family="Caveat Brush" text-align="left" alignment-baseline="central">R$ 50</text></g></g><g id="54ce18c3-002e-411e-3451-8e720f99c852_svg" class="tl-centered-g" transform="translate(506.00, 260.50) rotate(0.00, 65.50, 65.50)"><path d="M 39.84,131.48 Q 39.84,131.48 33.40,131.64 26.97,131.80 18.86,131.97 10.76,132.14 6.66,130.29 2.56,128.43 1.50,121.23 0.45,114.02 0.31,105.70 0.18,97.37 0.22,88.76 0.26,80.15 0.26,71.47 0.25,62.78 0.16,54.07 0.08,45.36 -0.00,36.64 -0.08,27.93 -0.16,19.19 -0.24,10.45 1.62,6.20 3.50,1.95 10.65,0.84 17.80,-0.27 26.04,-0.43 34.29,-0.59 42.82,-0.56 51.34,-0.53 59.95,-0.55 68.55,-0.57 77.17,-0.68 85.80,-0.78 94.43,-0.88 103.06,-0.97 111.71,-1.07 120.36,-1.16 124.59,0.70 128.83,2.57 129.93,9.72 131.03,16.87 131.19,25.11 131.34,33.36 131.31,41.89 131.28,50.42 131.29,59.02 131.31,67.62 131.41,76.25 131.50,84.87 131.60,93.50 131.69,102.13 131.78,110.78 131.87,119.43 130.01,123.66 128.14,127.89 120.99,129.06 113.83,130.23 105.57,130.47 97.32,130.71 88.78,130.77 80.24,130.83 71.63,130.93 63.02,131.04 54.38,131.23 45.75,131.41 34.16,131.63 22.56,131.84 22.33,131.81 22.09,131.77 21.88,131.66 21.67,131.55 21.51,131.38 21.34,131.21 21.24,131.00 21.14,130.79 21.11,130.55 21.08,130.32 21.13,130.08 21.18,129.85 21.30,129.65 21.42,129.44 21.60,129.29 21.78,129.13 22.00,129.04 22.22,128.95 22.45,128.94 22.69,128.92 22.92,128.98 23.15,129.04 23.34,129.18 23.54,129.31 23.69,129.49 23.83,129.68 23.91,129.90 23.99,130.13 23.99,130.36 23.99,130.60 23.92,130.83 23.85,131.05 23.71,131.24 23.56,131.43 23.37,131.57 23.18,131.70 22.95,131.77 22.72,131.83 22.48,131.82 22.25,131.81 22.03,131.73 21.80,131.64 21.62,131.49 21.44,131.34 21.32,131.14 21.19,130.94 21.14,130.70 21.09,130.47 21.11,130.24 21.13,130.00 21.23,129.79 21.33,129.57 21.49,129.40 21.65,129.22 21.86,129.11 22.06,129.00 22.30,128.96 22.53,128.92 22.53,128.92 22.53,128.92 34.13,128.89 45.72,128.86 54.36,128.85 62.99,128.85 71.60,128.75 80.20,128.64 88.71,128.40 97.22,128.16 105.31,127.75 113.40,127.34 119.88,126.49 126.36,125.65 127.47,122.50 128.59,119.34 128.68,110.74 128.77,102.13 128.86,93.50 128.95,84.87 129.04,76.25 129.12,67.63 129.11,59.03 129.09,50.43 128.94,41.93 128.78,33.44 128.46,25.35 128.13,17.27 127.35,10.79 126.57,4.32 123.42,3.22 120.27,2.11 111.66,2.03 103.06,1.94 94.43,1.86 85.80,1.77 77.18,1.69 68.56,1.60 59.96,1.62 51.36,1.64 42.86,1.80 34.37,1.96 26.28,2.29 18.20,2.62 11.73,3.41 5.25,4.20 4.14,7.37 3.03,10.55 2.94,19.24 2.84,27.93 2.74,36.65 2.63,45.36 2.54,54.07 2.44,62.78 2.44,71.46 2.45,80.14 2.59,88.72 2.73,97.31 3.04,105.47 3.35,113.64 4.09,120.17 4.83,126.70 7.83,127.78 10.83,128.86 18.88,128.87 26.94,128.87 33.38,128.89 39.81,128.92 39.97,128.94 40.12,128.95 40.26,129.01 40.41,129.06 40.54,129.15 40.67,129.23 40.77,129.35 40.87,129.46 40.94,129.60 41.02,129.73 41.06,129.88 41.09,130.03 41.10,130.19 41.10,130.34 41.06,130.49 41.03,130.64 40.96,130.78 40.89,130.91 40.79,131.03 40.68,131.15 40.56,131.24 40.43,131.32 40.29,131.38 40.15,131.44 39.99,131.46 Z" fill="#1d1d1d" stroke="#1d1d1d" stroke-width="2" pointer-events="none"/></g><g id="51b049af-9972-4448-3b37-76d48f6eba11_svg" class="tl-centered-g" transform="translate(655.00, 264.50) rotate(0.00, 112.00, 62.50)"><path d="M -0.39,38.44 Q -0.39,38.44 -0.49,32.34 -0.60,26.25 -0.71,18.57 -0.81,10.90 1.04,6.92 2.89,2.94 9.77,1.83 16.64,0.73 24.54,0.52 32.44,0.31 40.60,0.28 48.76,0.24 57.00,0.24 65.23,0.25 73.49,0.27 81.74,0.28 89.99,0.30 98.25,0.32 106.51,0.29 114.77,0.26 123.03,0.18 131.29,0.10 139.54,0.02 147.80,-0.05 156.06,-0.13 164.32,-0.21 172.58,-0.29 180.84,-0.37 189.10,-0.45 197.35,-0.53 205.64,-0.61 213.92,-0.68 218.06,1.17 222.20,3.03 223.25,9.90 224.31,16.76 224.43,24.66 224.55,32.55 224.49,40.70 224.43,48.85 224.42,57.08 224.40,65.30 224.47,73.54 224.54,81.79 224.61,90.04 224.67,98.29 224.73,106.56 224.79,114.83 222.92,118.96 221.04,123.09 214.19,124.21 207.34,125.32 199.46,125.51 191.58,125.69 183.44,125.70 175.30,125.70 167.10,125.66 158.89,125.62 150.66,125.56 142.44,125.51 134.20,125.46 125.97,125.40 117.74,125.39 109.51,125.39 101.28,125.43 93.04,125.47 84.81,125.52 76.58,125.56 68.35,125.60 60.11,125.65 51.88,125.69 43.65,125.73 35.42,125.78 27.18,125.82 18.93,125.86 10.67,125.90 6.54,124.03 2.42,122.17 1.32,115.35 0.23,108.53 0.06,100.70 -0.09,92.87 -0.08,84.78 -0.06,76.70 -0.10,68.54 -0.14,60.39 -0.25,52.21 -0.37,44.04 -0.49,33.06 -0.61,22.08 -0.57,21.84 -0.54,21.61 -0.43,21.40 -0.31,21.19 -0.14,21.03 0.02,20.86 0.23,20.76 0.45,20.66 0.68,20.64 0.92,20.61 1.15,20.66 1.38,20.71 1.59,20.83 1.79,20.95 1.94,21.14 2.10,21.32 2.18,21.54 2.27,21.75 2.29,21.99 2.30,22.23 2.24,22.46 2.17,22.68 2.04,22.88 1.91,23.08 1.72,23.22 1.53,23.37 1.31,23.44 1.08,23.52 0.85,23.52 0.61,23.52 0.39,23.44 0.16,23.37 -0.02,23.23 -0.21,23.08 -0.34,22.89 -0.47,22.69 -0.54,22.46 -0.60,22.24 -0.59,22.00 -0.58,21.76 -0.49,21.54 -0.40,21.32 -0.25,21.14 -0.10,20.96 0.10,20.84 0.30,20.71 0.53,20.66 0.76,20.61 1.00,20.64 1.23,20.66 1.45,20.76 1.66,20.86 1.83,21.02 2.01,21.18 2.12,21.39 2.23,21.60 2.27,21.84 2.31,22.07 2.31,22.07 2.31,22.07 2.24,33.05 2.18,44.03 2.11,52.20 2.04,60.38 2.08,68.53 2.11,76.68 2.28,84.73 2.45,92.79 2.79,100.45 3.13,108.12 3.90,114.25 4.66,120.38 7.72,121.50 10.77,122.62 18.98,122.67 27.19,122.72 35.42,122.78 43.65,122.83 51.88,122.89 60.12,122.95 68.35,123.00 76.58,123.06 84.81,123.12 93.05,123.17 101.28,123.23 109.51,123.29 117.74,123.29 125.98,123.30 134.21,123.26 142.44,123.21 150.66,123.16 158.89,123.12 167.09,123.06 175.29,123.00 183.39,122.90 191.49,122.80 199.20,122.52 206.91,122.25 213.09,121.55 219.27,120.84 220.39,117.78 221.51,114.73 221.63,106.50 221.74,98.28 221.86,90.03 221.98,81.78 222.10,73.54 222.22,65.30 222.23,57.08 222.25,48.86 222.12,40.74 222.00,32.61 221.70,24.89 221.41,17.16 220.68,10.98 219.94,4.79 216.89,3.69 213.83,2.59 205.60,2.57 197.37,2.56 189.11,2.54 180.85,2.52 172.59,2.50 164.33,2.48 156.07,2.46 147.81,2.44 139.55,2.42 131.29,2.40 123.04,2.38 114.78,2.36 106.52,2.39 98.26,2.42 90.00,2.50 81.75,2.58 73.50,2.67 65.25,2.75 57.02,2.84 48.79,2.94 40.66,3.07 32.53,3.21 24.80,3.51 17.06,3.80 10.87,4.50 4.68,5.19 3.57,8.09 2.45,11.00 2.39,18.62 2.32,26.24 2.24,32.34 2.16,38.43 2.14,38.59 2.13,38.74 2.07,38.88 2.02,39.03 1.93,39.15 1.84,39.28 1.73,39.38 1.61,39.49 1.48,39.56 1.34,39.63 1.19,39.67 1.04,39.71 0.89,39.71 0.73,39.71 0.58,39.67 0.43,39.63 0.30,39.56 0.16,39.49 0.04,39.39 -0.06,39.29 -0.15,39.16 -0.24,39.03 -0.29,38.89 -0.35,38.75 -0.37,38.59 Z" fill="#1d1d1d" stroke="#1d1d1d" stroke-width="2" pointer-events="none"/></g><g text-align="center" text-anchor="middle" transform="translate(32.00, 473.50) rotate(0.00, 125.50, 62.50)"><g id="98767dcc-4024-459e-0a28-308d1d39331c_svg" class="tl-centered-g"><path d="M 192.15,115.19 Q 192.15,115.19 189.90,116.08 187.64,116.97 185.83,117.58 184.03,118.19 181.65,118.90 179.27,119.60 176.29,120.30 173.31,121.01 169.72,121.72 166.13,122.42 161.91,123.08 157.69,123.73 152.84,124.25 148.00,124.78 142.55,125.11 137.09,125.45 131.07,125.56 125.05,125.66 118.53,125.48 112.00,125.29 105.07,124.73 98.13,124.17 90.91,123.16 83.69,122.16 76.35,120.65 69.00,119.15 61.73,117.09 54.46,115.03 47.49,112.38 40.52,109.74 34.09,106.50 27.67,103.26 22.06,99.44 16.45,95.62 11.92,91.26 7.38,86.90 4.19,82.07 1.00,77.23 -0.60,72.02 -2.20,66.81 -2.01,61.38 -1.81,55.95 0.30,50.51 2.43,45.07 6.52,39.84 10.60,34.60 16.57,29.77 22.54,24.93 30.26,20.67 37.97,16.41 47.21,12.88 56.44,9.35 66.91,6.69 77.38,4.03 88.71,2.36 100.05,0.68 111.86,0.06 123.66,-0.56 135.49,-0.10 147.32,0.35 158.75,1.86 170.18,3.38 180.79,5.88 191.41,8.39 200.84,11.78 210.27,15.18 218.21,19.31 226.15,23.45 232.39,28.17 238.62,32.90 243.01,38.03 247.39,43.17 249.85,48.54 252.32,53.92 252.87,59.35 253.41,64.78 252.13,70.05 250.84,75.32 247.92,80.26 244.99,85.19 240.67,89.66 236.35,94.12 230.91,98.04 225.47,101.97 219.17,105.31 212.88,108.64 206.01,111.39 199.14,114.13 191.93,116.28 184.73,118.44 177.42,120.03 170.11,121.63 162.90,122.71 155.69,123.79 148.74,124.42 141.79,125.05 135.23,125.30 128.68,125.54 122.62,125.47 116.55,125.39 111.05,125.05 105.55,124.72 100.65,124.19 95.75,123.67 91.47,123.02 87.19,122.38 83.54,121.67 79.89,120.97 76.85,120.26 73.81,119.56 71.36,118.93 68.91,118.30 67.02,117.76 65.14,117.22 63.01,116.51 60.87,115.79 60.88,115.79 60.88,115.78 60.88,115.78 60.88,115.77 63.07,116.26 65.26,116.74 67.17,117.15 69.07,117.57 71.54,118.07 74.01,118.57 77.06,119.10 80.12,119.63 83.77,120.17 87.42,120.71 91.68,121.22 95.94,121.73 100.80,122.16 105.67,122.58 111.12,122.86 116.58,123.14 122.59,123.20 128.59,123.25 135.09,123.01 141.58,122.77 148.47,122.15 155.35,121.52 162.49,120.46 169.62,119.39 176.85,117.81 184.07,116.24 191.18,114.12 198.29,112.00 205.05,109.31 211.81,106.62 217.97,103.36 224.13,100.10 229.42,96.31 234.71,92.52 238.87,88.26 243.03,84.00 245.83,79.37 248.63,74.74 249.88,69.85 251.13,64.95 250.68,59.89 250.22,54.83 247.93,49.73 245.63,44.63 241.43,39.67 237.23,34.71 231.16,30.10 225.09,25.48 217.29,21.41 209.49,17.33 200.18,13.98 190.88,10.62 180.38,8.14 169.88,5.65 158.56,4.14 147.23,2.64 135.51,2.18 123.78,1.72 112.08,2.34 100.39,2.95 89.16,4.60 77.94,6.26 67.60,8.87 57.26,11.49 48.17,14.95 39.07,18.42 31.53,22.57 23.98,26.72 18.19,31.38 12.40,36.03 8.47,40.99 4.55,45.94 2.51,51.02 0.46,56.09 0.23,61.14 -0.00,66.19 1.46,71.09 2.93,76.00 5.96,80.63 8.99,85.26 13.37,89.49 17.75,93.72 23.23,97.46 28.71,101.20 35.03,104.38 41.34,107.57 48.22,110.18 55.10,112.78 62.29,114.81 69.48,116.85 76.75,118.33 84.02,119.81 91.17,120.79 98.32,121.77 105.20,122.31 112.07,122.85 118.54,123.01 125.00,123.17 130.96,123.02 136.92,122.88 142.32,122.50 147.71,122.12 152.51,121.61 157.31,121.10 161.49,120.53 165.68,119.96 169.26,119.37 172.84,118.79 175.82,118.23 178.81,117.67 181.23,117.22 183.65,116.77 185.51,116.41 187.38,116.06 189.76,115.62 Z" fill="#1d1d1d" stroke="#1d1d1d" stroke-width="2" pointer-events="none" stroke-linecap="round" stroke-linejoin="round"/></g><g fill="#1d1d1d" transform-origin="top left" transform="translate(125.5, 29.5)"><text y="18.2" letter-spacing="-0.84" font-size="28px" font-family="Caveat Brush" text-align="left" alignment-baseline="central">Mobile</text><text y="54.59" letter-spacing="-0.84" font-size="28px" font-family="Caveat Brush" text-align="left" alignment-baseline="central">First</text></g></g></svg>